<svg xmlns="http://www.w3.org/2000/svg" xmlns:xlink="http://www.w3.org/1999/xlink">
<symbol id="bamboo" viewBox="0 0 126 126"><path d="M99.1077 44.3775C99.0366 44.249 98.9407 44.136 98.8256 44.0449C98.7104 43.9538 98.5783 43.8866 98.4369 43.8471C95.2445 42.9541 91.4971 43.5021 88.1556 45.3508C86.1479 46.4428 84.4152 47.9777 83.0891 49.8391L83.0625 49.7192C82.0481 45.142 82.0481 43.4128 83.0625 38.8357L83.8228 35.4046C83.8587 35.2428 83.8577 35.0749 83.8201 34.9135C83.7824 34.752 83.709 34.6011 83.6052 34.4718C83.5015 34.3425 83.37 34.2382 83.2205 34.1665C83.071 34.0948 82.9074 34.0576 82.7416 34.0576H68.9603C68.7945 34.0576 68.6309 34.0948 68.4814 34.1665C68.3319 34.2382 68.2004 34.3425 68.0967 34.4718C67.9929 34.6011 67.9195 34.752 67.8818 34.9135C67.8442 35.0749 67.8432 35.2428 67.8791 35.4046L68.6394 38.8357C69.6536 43.4128 69.6536 45.142 68.6394 49.7192L67.8791 53.1502C67.8751 53.1681 67.8734 53.1862 67.8703 53.2043C67.8668 53.2249 67.8625 53.2454 67.8602 53.2662C67.8579 53.2871 67.8575 53.3075 67.8563 53.3281C67.8552 53.3488 67.8533 53.3692 67.8533 53.3899C67.8533 53.4105 67.8552 53.431 67.8563 53.4516C67.8575 53.4721 67.8579 53.4928 67.8602 53.5135C67.8625 53.5341 67.8668 53.5548 67.8703 53.5754C67.8734 53.5934 67.8752 53.6115 67.8791 53.6296L68.6394 57.0606C69.6538 61.6377 69.6538 63.3668 68.6394 67.944L68.0714 70.5071H58.19L57.622 67.944C56.6075 63.3668 56.6075 61.6377 57.622 57.0606L58.3823 53.6296C58.3862 53.6116 58.388 53.5935 58.391 53.5754C58.3946 53.5548 58.3988 53.5343 58.4012 53.5135C58.4035 53.4927 58.4039 53.4722 58.405 53.4516C58.4062 53.4309 58.4081 53.4105 58.4081 53.3899C58.4081 53.3692 58.4062 53.3487 58.405 53.3281C58.4039 53.3075 58.4035 53.2869 58.4012 53.2662C58.3988 53.2456 58.3946 53.2249 58.391 53.2043C58.388 53.1863 58.3861 53.1682 58.3823 53.1502L57.622 49.7192C56.6076 45.142 56.6076 43.4128 57.622 38.8357L58.3823 35.4046C58.3862 35.3867 58.388 35.3686 58.391 35.3505C58.3946 35.3299 58.3988 35.3094 58.4012 35.2886C58.4035 35.2678 58.4039 35.2473 58.405 35.2267C58.4062 35.206 58.4081 35.1856 58.4081 35.165C58.4081 35.1443 58.4062 35.1238 58.405 35.1032C58.4039 35.0827 58.4035 35.062 58.4012 35.0413C58.3988 35.0207 58.3946 35 58.391 34.9794C58.388 34.9614 58.3861 34.9433 58.3823 34.9253L57.622 31.4943C56.6075 26.9171 56.6075 25.188 57.622 20.6109L58.3823 17.1798C58.4181 17.018 58.4172 16.8501 58.3795 16.6887C58.3419 16.5272 58.2685 16.3763 58.1647 16.247C58.0609 16.1177 57.9294 16.0134 57.78 15.9417C57.6305 15.87 57.4668 15.8328 57.301 15.8328H43.5198C43.354 15.8328 43.1903 15.87 43.0408 15.9417C42.8914 16.0134 42.7599 16.1178 42.6561 16.247C42.5524 16.3763 42.4789 16.5273 42.4413 16.6887C42.4036 16.8501 42.4027 17.018 42.4386 17.1798L43.1988 20.6109C44.2132 25.188 44.2132 26.9171 43.1988 31.4943L43.1564 31.6859C41.8089 29.6569 39.9851 27.9887 37.8443 26.827C34.5029 24.9784 30.7554 24.4306 27.563 25.3235C27.4217 25.363 27.2895 25.4303 27.1744 25.5213C27.0592 25.6124 26.9633 25.7255 26.8922 25.8539C26.8212 25.9824 26.7764 26.1237 26.7604 26.2697C26.7445 26.4156 26.7578 26.5633 26.7994 26.7041C27.7397 29.883 30.1953 32.766 33.5367 34.6143C35.7148 35.8451 38.1682 36.5065 40.6698 36.5371C41.3341 36.5359 41.9972 36.4798 42.6523 36.3695L43.1988 38.8356C44.2131 43.4127 44.2131 45.142 43.1988 49.7191L42.4385 53.1501C42.4345 53.1681 42.4328 53.1862 42.4297 53.2043C42.4262 53.2249 42.4219 53.2454 42.4196 53.2662C42.4173 53.287 42.4169 53.3074 42.4157 53.3281C42.4146 53.3487 42.4127 53.3691 42.4127 53.3898C42.4127 53.4105 42.4146 53.431 42.4157 53.4515C42.4169 53.4721 42.4173 53.4928 42.4196 53.5134C42.4219 53.5341 42.4262 53.5547 42.4297 53.5754C42.4328 53.5934 42.4346 53.6115 42.4385 53.6295L43.1988 57.0605C44.2132 61.6376 44.2132 63.3668 43.1988 67.9439L42.5155 71.0275C36.7634 75.0867 33.603 80.4612 33.603 86.2156C33.603 92.2212 37.0277 97.7931 43.246 101.905C43.6857 102.19 44.004 102.628 44.139 103.135C44.274 103.641 44.2161 104.18 43.9767 104.646L41.9476 108.549C41.8599 108.718 41.8171 108.906 41.8234 109.096C41.8297 109.287 41.8849 109.472 41.9836 109.634C42.0823 109.797 42.2213 109.932 42.3871 110.025C42.5529 110.118 42.74 110.167 42.9302 110.167H83.512C83.7023 110.167 83.8893 110.118 84.0551 110.025C84.2209 109.932 84.3599 109.797 84.4586 109.634C84.5574 109.472 84.6126 109.287 84.6189 109.096C84.6252 108.906 84.5824 108.718 84.4946 108.549L82.4657 104.646C82.2262 104.18 82.1683 103.641 82.3034 103.135C82.4384 102.628 82.7566 102.19 83.1964 101.905C89.4147 97.7929 92.8392 92.221 92.8392 86.2154C92.8392 80.3904 89.5999 74.9552 83.713 70.8791L83.0625 67.9437C82.048 63.3666 82.048 61.6374 83.0625 57.0603L83.5358 54.9246C84.1298 55.0144 84.7296 55.0599 85.3304 55.0608C87.8319 55.0299 90.2852 54.3686 92.4632 53.138C95.8047 51.2896 98.2604 48.4064 99.2007 45.2276C99.2423 45.0868 99.2555 44.9392 99.2395 44.7932C99.2236 44.6473 99.1787 44.506 99.1077 44.3775ZM70.8019 38.3564L70.3402 36.2724H81.362L80.9002 38.3564C79.821 43.226 79.821 45.3287 80.9002 50.1984L81.362 52.2824H70.34L70.8018 50.1984C71.8809 45.3287 71.881 43.226 70.8019 38.3564ZM70.8019 56.5812L70.3402 54.4972H81.362L80.9002 56.5812C79.821 61.4506 79.821 63.5535 80.9002 68.423L81.362 70.507H70.34L70.8018 68.423C71.8809 63.5535 71.881 61.4506 70.8019 56.5812ZM45.3614 56.5812L44.8996 54.4972H55.9214L55.4597 56.5812C54.3805 61.4506 54.3805 63.5535 55.4597 68.423L55.9214 70.507H44.8995L45.3613 68.423C46.4404 63.5535 46.4405 61.4506 45.3614 56.5812ZM45.3614 38.3564L44.8996 36.2724H55.9214L55.4597 38.3564C54.3805 43.226 54.3805 45.3287 55.4597 50.1984L55.9214 52.2824H44.8995L45.3613 50.1984C46.4404 45.3287 46.4405 43.226 45.3614 38.3564ZM45.3614 20.1318L44.8996 18.0478H55.9214L55.4597 20.1318C54.3805 25.0012 54.3805 27.1041 55.4597 31.9736L55.9214 34.0576H44.8995L45.3613 31.9736C46.4404 27.1041 46.4405 25.0012 45.3614 20.1318ZM34.609 32.6762C32.1869 31.3365 30.322 29.3865 29.345 27.2107C31.7068 26.8809 34.35 27.4253 36.7723 28.7651C39.1944 30.1047 41.0593 32.0549 42.0362 34.2308C39.6737 34.5597 37.0309 34.016 34.609 32.6762ZM90.6244 86.2155C90.6244 91.4532 87.5525 96.3689 81.9748 100.057C81.0776 100.644 80.4301 101.542 80.1577 102.579C79.8854 103.615 80.0075 104.716 80.5005 105.668L81.6882 107.952H44.7542L45.9419 105.668C46.4349 104.716 46.5571 103.615 46.2847 102.579C46.0123 101.542 45.3648 100.644 44.4676 100.057C38.8898 96.369 35.8179 91.4533 35.8179 86.2156C35.8179 81.1505 38.7045 76.3694 43.9555 72.7219H82.4868C87.7378 76.3694 90.6244 81.1504 90.6244 86.2155ZM91.3911 51.2C88.9689 52.5397 86.3262 53.084 83.9639 52.7544C84.9407 50.5785 86.8056 48.6285 89.2278 47.2887C91.6501 45.9489 94.2926 45.4048 96.6551 45.7343C95.6782 47.9101 93.8133 49.8601 91.3911 51.2Z"/><path d="M76.4608 101.503H49.9817C49.688 101.503 49.4063 101.62 49.1986 101.828C48.9909 102.035 48.8743 102.317 48.8743 102.611C48.8743 102.904 48.9909 103.186 49.1986 103.394C49.4063 103.601 49.688 103.718 49.9817 103.718H76.4608C76.7545 103.718 77.0362 103.601 77.2439 103.394C77.4516 103.186 77.5682 102.904 77.5682 102.611C77.5682 102.317 77.4516 102.035 77.2439 101.828C77.0362 101.62 76.7545 101.503 76.4608 101.503Z"/></symbol><symbol id="fern" viewBox="0 0 126 126"><path d="M104.299 23.8365C104.012 23.4553 103.627 23.1584 103.186 22.9771C102.744 22.7957 102.262 22.7365 101.79 22.8058C92.8218 24.1192 84.4554 28.0155 77.0586 34.2489C76.8722 33.5984 76.6454 32.9602 76.3796 32.3379C75.9216 31.205 75.448 30.0335 75.6724 29.1988C75.8456 28.5545 76.7445 27.843 77.6141 27.1549C78.6922 26.3015 79.9142 25.3343 80.4667 23.9832C80.9601 22.7767 80.7756 21.3937 80.5971 20.0563C80.4911 19.4001 80.4339 18.7368 80.4258 18.0721C80.4338 17.7021 80.3399 17.3371 80.1545 17.0168C79.9692 16.6965 79.6994 16.4333 79.3746 16.2559C79.0474 16.0747 78.6768 15.9868 78.303 16.0018C77.9293 16.0167 77.5669 16.1341 77.2552 16.3409C70.6526 20.7173 65.8049 27.2588 62.9971 35.4944C60.1892 27.2603 55.3461 20.7167 48.7445 16.3409C48.4328 16.134 48.0703 16.0166 47.6965 16.0016C47.3227 15.9867 46.952 16.0747 46.6248 16.256C46.3001 16.4335 46.0304 16.6967 45.845 17.0169C45.6597 17.3372 45.5658 17.7022 45.5737 18.0721C45.5655 18.7368 45.5083 19.4 45.4024 20.0563C45.224 21.3937 45.0394 22.7765 45.5328 23.9829C46.0852 25.3341 47.3075 26.3014 48.3858 27.1549C49.2552 27.843 50.1542 28.5544 50.3274 29.1987C50.5518 30.0334 50.078 31.205 49.6202 32.3379C49.3543 32.9601 49.1275 33.5983 48.9411 34.2488C41.5442 28.0154 33.1777 24.119 24.2098 22.8056C23.7378 22.7367 23.2558 22.796 22.8145 22.9772C22.3732 23.1585 21.9887 23.455 21.7013 23.8357C21.4139 24.2165 21.2341 24.6675 21.1808 25.1416C21.1274 25.6157 21.2025 26.0954 21.3981 26.5305C21.7142 27.2737 21.9927 28.0323 22.2326 28.8035C22.8041 30.5327 23.395 32.3209 24.6547 33.4502C26.0788 34.7269 28.05 35.1629 29.956 35.5846C31.6179 35.9522 33.1876 36.2995 33.9028 37.1242C34.7995 38.1583 34.9244 40.0014 35.0452 41.7838C35.1661 43.5685 35.2912 45.414 36.1947 46.7916C37.2714 48.4325 39.1606 49.4308 40.8275 50.3116C42.3032 51.0916 43.697 51.8282 44.1347 52.7569C44.8021 54.1733 44.3753 56.089 43.9626 57.9418C43.7446 58.8254 43.5857 59.7225 43.4868 60.6272H40.8808C40.5581 60.6272 40.2487 60.7554 40.0206 60.9835C39.7925 61.2116 39.6643 61.5211 39.6643 61.8437V66.8352C39.6612 76.4814 41.2342 86.0634 44.3211 95.2023L45.9607 100.062H43.8652C43.5425 100.062 43.2331 100.19 43.005 100.418C42.7769 100.646 42.6487 100.956 42.6487 101.278V108.784C42.6487 109.106 42.7769 109.416 43.005 109.644C43.2331 109.872 43.5425 110 43.8652 110H82.1346C82.4572 110 82.7667 109.872 82.9948 109.644C83.2229 109.416 83.3511 109.106 83.3511 108.784V101.278C83.3511 100.956 83.2229 100.646 82.9948 100.418C82.7667 100.19 82.4572 100.062 82.1346 100.062H80.0392L81.679 95.2024C84.7657 86.0634 86.3385 76.4815 86.3355 66.8353V61.8437C86.3355 61.5211 86.2073 61.2117 85.9792 60.9836C85.751 60.7554 85.4416 60.6273 85.119 60.6273H82.5131C82.4143 59.7226 82.2554 58.8254 82.0373 57.9418C81.6247 56.0892 81.1978 54.1735 81.8652 52.757C82.3029 51.8282 83.6967 51.0915 85.1725 50.3117C86.8393 49.4309 88.7284 48.4325 89.8052 46.7915C90.7088 45.414 90.834 43.5686 90.9546 41.7839C91.0755 40.0014 91.2001 38.1584 92.0969 37.1242C92.812 36.2995 94.3817 35.9522 96.0438 35.5846C97.9501 35.1629 99.921 34.7269 101.345 33.4503C102.605 32.3209 103.196 30.5327 103.767 28.8034C104.007 28.0323 104.285 27.2738 104.601 26.5307C104.797 26.0958 104.873 25.6162 104.819 25.1421C104.766 24.6681 104.586 24.2171 104.299 23.8365ZM78.0103 18.7687C78.0433 19.3105 78.1154 19.8505 78.1856 20.3781C78.3218 21.3995 78.4628 22.4557 78.2149 23.0622C77.904 23.8227 76.9889 24.5469 76.104 25.2471C74.9245 26.1807 73.7049 27.1461 73.3229 28.5673C72.8868 30.1893 73.5441 31.8152 74.1239 33.2497C74.5029 34.1875 74.895 35.1573 74.8136 35.7843C74.7827 35.9951 74.7261 36.2014 74.6452 36.3986C71.4901 39.3841 68.6274 42.6643 66.0962 46.1944C64.9629 47.7637 63.9346 49.313 63.001 50.814C62.9076 50.664 62.8089 50.5114 62.7136 50.3604C62.8297 47.9917 63.0947 45.6325 63.5069 43.297C65.4592 32.3448 70.3366 24.0968 78.0103 18.7687ZM51.1859 35.7843C51.1046 35.1574 51.4967 34.1877 51.8757 33.2498C52.4556 31.8153 53.1129 30.1894 52.6769 28.5673C52.295 27.1461 51.0752 26.1807 49.8955 25.2471C49.0107 24.547 48.0957 23.8225 47.7847 23.0622C47.5368 22.4559 47.6776 21.3997 47.814 20.3781C47.8843 19.8505 47.9564 19.3105 47.9894 18.7684C54.8268 23.5164 59.4431 30.5862 61.749 39.8207C61.5101 40.8171 61.2977 41.8335 61.1117 42.8701C60.8522 44.326 60.662 45.7321 60.5232 47.0694C60.3189 46.7783 60.1147 46.4871 59.9034 46.1944C57.3722 42.6643 54.5095 39.3841 51.3543 36.3985C51.2734 36.2014 51.2169 35.9951 51.1859 35.7843ZM46.3355 51.7199C45.5516 50.0566 43.7278 49.0927 41.9641 48.1607C40.4881 47.3808 38.9619 46.5741 38.2289 45.4571C37.6752 44.613 37.5767 43.1589 37.4725 41.6195C37.3315 39.5388 37.1718 37.1807 35.7408 35.5304C34.4988 34.0978 32.4565 33.6461 30.4815 33.2091C28.8817 32.8553 27.2276 32.4893 26.2788 31.6388C25.5017 30.9421 25.0359 29.5326 24.5428 28.0401C24.2774 27.1885 23.9682 26.3512 23.6164 25.5315C23.6 25.4942 23.5939 25.4533 23.5986 25.4128C23.6033 25.3724 23.6188 25.334 23.6433 25.3015C23.6679 25.2691 23.7007 25.2437 23.7383 25.2282C23.7759 25.2127 23.817 25.2075 23.8573 25.2131C31.1365 26.2791 37.9776 29.0979 44.1907 33.591C49.1875 37.2044 53.7965 41.9049 57.8897 47.5615C60.8435 51.6699 63.409 56.044 65.5531 60.6273H45.9332C46.0304 59.902 46.1653 59.1822 46.3372 58.4709C46.8155 56.3235 47.3578 53.8896 46.3355 51.7199ZM80.9182 107.567H45.0814V102.495H80.9182L80.9182 107.567ZM83.9026 66.8352C83.9057 76.2169 82.3759 85.5361 79.3739 94.4245L77.4717 100.062H48.5281L46.626 94.4246C43.6238 85.5362 42.094 76.217 42.097 66.8352V63.0602H83.9025L83.9026 66.8352ZM102.383 25.5314C102.032 26.3511 101.722 27.1884 101.457 28.04C100.964 29.5325 100.498 30.942 99.7209 31.6389C98.772 32.4893 97.1179 32.8553 95.5182 33.2092C93.5433 33.6461 91.5011 34.0979 90.259 35.5303C88.8279 37.1807 88.6682 39.5389 88.5272 41.6195C88.4232 43.159 88.3247 44.613 87.7709 45.457C87.0378 46.5742 85.5117 47.3807 84.0357 48.1608C82.272 49.0928 80.4483 50.0566 79.6645 51.7201C78.6421 53.8896 79.1843 56.3235 79.6627 58.4709C79.8346 59.1822 79.9695 59.902 80.0667 60.6273H68.2436C67.3086 58.5559 66.0449 55.9944 64.4156 53.1744C65.5 51.3647 66.7269 49.4729 68.1099 47.5614C72.2033 41.9048 76.8121 37.2043 81.8089 33.5908C88.0221 29.0977 94.8631 26.279 102.142 25.213C102.183 25.2073 102.224 25.2125 102.261 25.2281C102.299 25.2436 102.332 25.2689 102.356 25.3014C102.381 25.3338 102.396 25.3723 102.401 25.4127C102.406 25.4531 102.4 25.4941 102.383 25.5314Z"/></symbol><symbol id="grow-sprout" viewBox="0 0 126 126"><path d="M103.657 76.8314H101.983C98.9087 76.8351 95.9058 77.758 93.36 79.4814C90.8142 81.2048 88.8418 83.6501 87.6963 86.503C86.5508 83.6501 84.5785 81.2048 82.0327 79.4814C79.4869 77.758 76.484 76.8351 73.4097 76.8314H71.7358C71.4421 76.8314 71.1604 76.948 70.9527 77.1557C70.7451 77.3634 70.6284 77.6451 70.6284 77.9388V79.6129C70.633 83.6942 72.2563 87.607 75.1422 90.4929C78.0281 93.3788 81.9409 95.0022 86.0222 95.0067H86.5889V102.366C81.1804 102.558 75.9231 104.202 71.3679 107.124C69.6189 108.244 67.5853 108.84 65.5083 108.84C63.4312 108.84 61.3977 108.244 59.6487 107.124C55.0936 104.202 49.8364 102.559 44.4281 102.366V95.0067H44.9946C49.0759 95.0022 52.9888 93.3789 55.8748 90.493C58.7607 87.607 60.3841 83.6942 60.3887 79.6129V77.9388C60.3887 77.6451 60.272 77.3634 60.0643 77.1557C59.8567 76.948 59.575 76.8314 59.2813 76.8314H57.6072C54.5329 76.8351 51.53 77.7579 48.9842 79.4813C46.4385 81.2047 44.4661 83.65 43.3206 86.5028C42.1752 83.65 40.2028 81.2047 37.657 79.4813C35.1113 77.7579 32.1083 76.8351 29.0341 76.8314H27.3601C27.0664 76.8314 26.7847 76.948 26.577 77.1557C26.3694 77.3634 26.2527 77.6451 26.2527 77.9388V79.6129C26.2573 83.6942 27.8806 87.607 30.7666 90.4929C33.6525 93.3788 37.5653 95.0022 41.6466 95.0067H42.2132V102.366C36.8049 102.559 31.5478 104.202 26.9926 107.124C26.7455 107.282 26.5716 107.533 26.5091 107.82C26.4466 108.107 26.5007 108.407 26.6594 108.654C26.8182 108.901 27.0686 109.075 27.3556 109.138C27.6425 109.2 27.9426 109.146 28.1897 108.987C32.7066 106.096 37.9574 104.559 43.3205 104.559C48.6837 104.559 53.9345 106.096 58.4514 108.987C60.5577 110.336 63.0068 111.054 65.5083 111.054C68.0098 111.054 70.4588 110.337 72.5652 108.987C77.0822 106.096 82.3331 104.559 87.6963 104.559C93.0596 104.559 98.3105 106.096 102.827 108.987C102.95 109.068 103.087 109.123 103.231 109.15C103.375 109.177 103.522 109.175 103.666 109.145C103.809 109.114 103.945 109.056 104.065 108.973C104.185 108.89 104.288 108.783 104.367 108.66C104.446 108.537 104.5 108.399 104.526 108.255C104.551 108.111 104.548 107.963 104.516 107.82C104.484 107.677 104.425 107.542 104.34 107.423C104.256 107.303 104.148 107.202 104.024 107.124C99.4693 104.202 94.2121 102.558 88.8038 102.366V95.0067H89.3704C93.4517 95.0022 97.3646 93.3788 100.25 90.4929C103.136 87.607 104.76 83.6942 104.764 79.6129V77.9388C104.764 77.6451 104.648 77.3634 104.44 77.1557C104.232 76.948 103.951 76.8314 103.657 76.8314ZM57.6072 79.0462H58.1738V79.6129C58.1699 83.107 56.7801 86.4569 54.3093 88.9275C51.8386 91.3982 48.4887 92.788 44.9946 92.7919H44.4281V92.2254C44.432 88.7313 45.8218 85.3814 48.2925 82.9107C50.7632 80.44 54.1131 79.0502 57.6072 79.0462ZM28.4675 79.6129V79.0462H29.0341C32.5282 79.0502 35.8781 80.44 38.3488 82.9107C40.8195 85.3814 42.2093 88.7313 42.2132 92.2254V92.7919H41.6466C38.1525 92.788 34.8027 91.3982 32.332 88.9275C29.8613 86.4568 28.4715 83.107 28.4675 79.6129ZM72.8432 79.6129V79.0462H73.4096C76.9037 79.0502 80.2536 80.44 82.7243 82.9107C85.1951 85.3814 86.5849 88.7313 86.5888 92.2254V92.7919H86.0221C82.5281 92.7879 79.1782 91.3982 76.7076 88.9275C74.2369 86.4568 72.8471 83.1069 72.8432 79.6129ZM102.549 79.6129C102.545 83.107 101.156 86.4568 98.685 88.9275C96.2143 91.3982 92.8645 92.788 89.3704 92.7919H88.8038V92.2254C88.8077 88.7313 90.1975 85.3814 92.6683 82.9107C95.139 80.44 98.4889 79.0502 101.983 79.0462H102.549L102.549 79.6129Z"/><path d="M37.3176 61.0066C37.7442 61.435 38.2512 61.7749 38.8096 62.0067C39.3679 62.2385 39.9666 62.3576 40.5711 62.3573C40.7362 62.3572 40.901 62.3484 41.0651 62.3308C41.7493 62.2596 42.4087 62.0354 42.9946 61.675C43.5805 61.3145 44.0779 60.827 44.45 60.2484L48.839 53.4553L66.059 51.3107L69.817 53.6825C69.9845 53.7882 70.1773 53.847 70.3753 53.8529C70.5733 53.8587 70.7693 53.8113 70.9427 53.7157C71.1162 53.62 71.2608 53.4796 71.3615 53.309C71.4623 53.1385 71.5154 52.944 71.5154 52.7459V42.7954C71.5154 42.5973 71.4622 42.4029 71.3615 42.2323C71.2608 42.0618 71.1162 41.9213 70.9427 41.8257C70.7693 41.73 70.5733 41.6827 70.3753 41.6885C70.1773 41.6944 69.9845 41.7532 69.817 41.8589L66.059 44.2304L55.6377 42.9325L58.9388 37.8233C59.0762 37.6106 59.1366 37.3572 59.1098 37.1053C59.0831 36.8535 58.9708 36.6184 58.7917 36.4393L44.9177 22.565L44.9162 22.5638L39.6812 17.3286C38.9259 16.5733 38.0293 15.9742 37.0424 15.5654C36.0556 15.1566 34.9979 14.9462 33.9298 14.9462C32.8616 14.9462 31.8039 15.1566 30.8171 15.5654C29.8303 15.9742 28.9336 16.5733 28.1784 17.3286L25.9461 19.5607C24.423 21.0872 23.5677 23.1556 23.5677 25.312C23.5677 27.4684 24.423 29.5368 25.9461 31.0634L27.597 32.7143L21.1085 36.9065C20.5309 37.2797 20.044 37.7774 19.6837 38.3632C19.3233 38.9489 19.0985 39.6078 19.0258 40.2917C18.9531 40.9756 19.0343 41.667 19.2635 42.3154C19.4927 42.9639 19.864 43.5528 20.3503 44.0391L37.3175 61.0064L37.3176 61.0066ZM66.1785 46.4773C66.4325 46.5083 66.6895 46.451 66.9062 46.3148L69.3005 44.8038V50.7375L66.9062 49.2263C66.6896 49.09 66.4325 49.0326 66.1785 49.0639L50.4072 51.0281L54.3031 44.9982L66.1785 46.4773ZM27.5122 29.4975C26.4039 28.3866 25.7814 26.8814 25.7814 25.3121C25.7814 23.7428 26.4039 22.2376 27.5122 21.1267L29.7445 18.8946C30.8545 17.7847 32.36 17.1612 33.9297 17.1612C35.4994 17.1612 37.0049 17.7847 38.1149 18.8946L42.3822 23.1619L29.4997 31.485L27.5122 29.4975ZM21.2283 40.5258C21.2653 40.1703 21.3818 39.8276 21.5691 39.5232C21.7564 39.2187 22.0097 38.9602 22.3103 38.7668L43.9841 24.7638L56.593 37.3727L42.5897 59.0462C42.3957 59.3464 42.1371 59.5994 41.8328 59.7866C41.5284 59.9739 41.186 60.0907 40.8307 60.1285C40.4753 60.1662 40.116 60.124 39.7791 60.0049C39.4421 59.8858 39.1361 59.6928 38.8835 59.4401L38.8836 59.4403L21.9164 42.4732C21.6631 42.2209 21.4698 41.9149 21.3507 41.5778C21.2316 41.2408 21.1897 40.8812 21.2283 40.5258Z"/><path d="M88.8752 61.2863C89.0444 61.5264 89.302 61.6895 89.5914 61.7397C89.8808 61.7898 90.1783 61.723 90.4184 61.5538C90.6585 61.3847 90.8215 61.127 90.8717 60.8377C90.9219 60.5483 90.855 60.2508 90.6859 60.0107C89.6286 58.5228 88.3748 57.1849 86.9584 56.0335C86.8459 55.9414 86.7163 55.8723 86.5771 55.8302C86.4379 55.7881 86.2918 55.7739 86.147 55.7883C86.0023 55.8027 85.8618 55.8454 85.7336 55.9141C85.6054 55.9828 85.492 56.076 85.3999 56.1886C85.2138 56.4158 85.1255 56.7076 85.1546 56.9999C85.1837 57.2922 85.3277 57.561 85.5549 57.7471C86.8164 58.7715 87.9334 59.9621 88.8752 61.2863Z"/><path d="M91.7429 64.1936C91.6047 64.2388 91.4768 64.3108 91.3664 64.4054C91.256 64.5001 91.1653 64.6156 91.0996 64.7453C91.0338 64.875 90.9943 65.0164 90.9832 65.1614C90.9721 65.3064 90.9897 65.4521 91.035 65.5903C91.5321 67.1356 91.8203 68.7405 91.8917 70.3622C91.9056 70.6461 92.028 70.9138 92.2338 71.1099C92.4395 71.306 92.7127 71.4156 92.997 71.4158C93.0152 71.4158 93.0335 71.4154 93.0518 71.4146C93.3451 71.4003 93.6208 71.27 93.8181 71.0525C94.0155 70.835 94.1184 70.548 94.1042 70.2546C94.023 68.4352 93.6986 66.6349 93.1397 64.9016C93.0945 64.7633 93.0225 64.6354 92.9279 64.525C92.8332 64.4146 92.7177 64.3239 92.588 64.2582C92.4583 64.1924 92.3169 64.1529 92.1719 64.1418C92.0269 64.1307 91.8811 64.1483 91.7429 64.1936Z"/><path d="M76.8324 53.3563C78.4203 53.7622 79.9584 54.3428 81.4185 55.0874C81.5486 55.1525 81.6901 55.1914 81.8352 55.2019C81.9803 55.2123 82.1259 55.194 82.2639 55.1481C82.402 55.1023 82.5296 55.0296 82.6395 54.9344C82.7495 54.8392 82.8396 54.7233 82.9047 54.5933C82.9698 54.4633 83.0087 54.3217 83.0192 54.1766C83.0296 54.0316 83.0113 53.8859 82.9655 53.7479C82.9196 53.6099 82.847 53.4822 82.7518 53.3723C82.6566 53.2624 82.5406 53.1722 82.4106 53.1071C80.7874 52.2766 79.0746 51.6342 77.3056 51.1927C77.0195 51.1321 76.7211 51.1871 76.4754 51.3458C76.2297 51.5044 76.0568 51.7538 75.9943 52.0395C75.9318 52.3251 75.9849 52.6239 76.1419 52.8707C76.2989 53.1174 76.5471 53.2919 76.8324 53.3563Z"/><path d="M97.1225 51.4635C98.4516 52.4268 99.67 53.5343 100.755 54.7658C100.949 54.9863 101.223 55.1206 101.516 55.1393C101.809 55.158 102.098 55.0594 102.318 54.8653C102.539 54.6713 102.673 54.3975 102.692 54.1044C102.71 53.8113 102.612 53.5227 102.418 53.3023C101.224 51.948 99.8843 50.73 98.4226 49.6707C98.1847 49.5028 97.8902 49.4354 97.6029 49.4831C97.3156 49.5307 97.0587 49.6897 96.8877 49.9254C96.7167 50.1612 96.6455 50.4548 96.6894 50.7426C96.7334 51.0305 96.889 51.2895 97.1225 51.4635Z"/><path d="M88.1516 47.3853C89.7619 47.7847 91.3338 48.3255 92.849 49.0015C92.9817 49.0616 93.125 49.095 93.2706 49.0996C93.4162 49.1042 93.5613 49.0801 93.6976 49.0285C93.8339 48.977 93.9586 48.8991 94.0647 48.7992C94.1708 48.6994 94.2562 48.5796 94.3159 48.4467C94.3756 48.3138 94.4086 48.1705 94.4128 48.0248C94.417 47.8792 94.3924 47.7342 94.3405 47.598C94.2886 47.4619 94.2103 47.3374 94.1102 47.2315C94.01 47.1257 93.89 47.0407 93.7569 46.9814C92.1225 46.2517 90.4267 45.6679 88.6894 45.2368C88.4051 45.1671 88.1047 45.2129 87.854 45.364C87.6033 45.5152 87.4226 45.7595 87.3515 46.0435C87.2804 46.3275 87.3247 46.6281 87.4746 46.8795C87.6245 47.131 87.8679 47.3129 88.1516 47.3853Z"/><path d="M107.669 62.6187C107.105 60.9196 106.385 59.2762 105.519 57.7094C105.448 57.5823 105.353 57.4704 105.239 57.3801C105.125 57.2898 104.995 57.2228 104.855 57.183C104.715 57.1432 104.568 57.1313 104.424 57.1481C104.28 57.1648 104.14 57.2099 104.013 57.2806C103.886 57.3514 103.774 57.4465 103.683 57.5605C103.593 57.6745 103.526 57.8051 103.486 57.945C103.447 58.0849 103.435 58.2312 103.451 58.3757C103.468 58.5202 103.513 58.6599 103.584 58.787C104.384 60.2342 105.048 61.7521 105.568 63.3215C105.661 63.6 105.861 63.8301 106.124 63.9612C106.387 64.0922 106.691 64.1135 106.97 64.0203C107.248 63.9271 107.478 63.7271 107.609 63.4643C107.74 63.2014 107.762 62.8973 107.669 62.6187Z"/><path d="M78.2739 46.4943C78.2813 46.4936 79.027 46.4169 80.2554 46.4169C81.2242 46.4169 82.2227 46.4633 83.2233 46.5549C83.2578 46.558 83.2918 46.5594 83.3255 46.5594C83.6104 46.5592 83.8843 46.4492 84.0901 46.2522C84.296 46.0553 84.4181 45.7865 84.4309 45.5019C84.4438 45.2173 84.3464 44.9387 84.1591 44.724C83.9718 44.5093 83.7089 44.375 83.4252 44.3491C82.3577 44.2516 81.2913 44.2021 80.2555 44.2021C78.8974 44.2021 78.0743 44.2883 78.0399 44.292C77.75 44.3255 77.4849 44.4722 77.3026 44.7001C77.1202 44.9281 77.0352 45.2188 77.066 45.5091C77.0969 45.7994 77.2411 46.0657 77.4673 46.2502C77.6935 46.4347 77.9834 46.5224 78.2739 46.4943Z"/></symbol><symbol id="indoor-plant" viewBox="0 0 126 126"><path d="M45.6014 28.5005C45.7042 28.6033 45.8263 28.6849 45.9606 28.7406C46.095 28.7962 46.239 28.8249 46.3845 28.8249C46.5299 28.8249 46.6739 28.7962 46.8083 28.7406C46.9426 28.6849 47.0647 28.6033 47.1676 28.5005C47.2704 28.3977 47.352 28.2756 47.4076 28.1412C47.4633 28.0068 47.4919 27.8628 47.4919 27.7174C47.4919 27.572 47.4633 27.4279 47.4076 27.2936C47.352 27.1592 47.2704 27.0371 47.1676 26.9343L44.6535 24.4202C44.4458 24.2125 44.1641 24.0959 43.8704 24.0959C43.5767 24.0959 43.295 24.2125 43.0873 24.4202C42.8796 24.6279 42.7629 24.9096 42.7629 25.2033C42.7629 25.4971 42.8796 25.7787 43.0873 25.9864L45.6014 28.5005Z"/><path d="M75.0714 28.8248C75.2169 28.825 75.3609 28.7964 75.4953 28.7407C75.6298 28.6851 75.7518 28.6034 75.8546 28.5004L78.3681 25.9863C78.4723 25.8838 78.5552 25.7616 78.612 25.6269C78.6687 25.4922 78.6982 25.3476 78.6988 25.2014C78.6994 25.0552 78.6711 24.9104 78.6154 24.7752C78.5597 24.64 78.4778 24.5172 78.3744 24.4138C78.2711 24.3105 78.1482 24.2286 78.0131 24.1729C77.8779 24.1173 77.733 24.0889 77.5868 24.0895C77.4406 24.0902 77.296 24.1197 77.1613 24.1765C77.0266 24.2333 76.9045 24.3161 76.802 24.4204L74.2884 26.9344C74.1335 27.0893 74.0281 27.2866 73.9854 27.5014C73.9427 27.7162 73.9646 27.9388 74.0484 28.1412C74.1322 28.3435 74.2741 28.5164 74.4562 28.6381C74.6383 28.7598 74.8524 28.8248 75.0714 28.8248Z"/><path d="M81.0127 43.1683H86.323C86.6167 43.1683 86.8983 43.0517 87.106 42.844C87.3137 42.6363 87.4304 42.3546 87.4304 42.0609C87.4304 41.7672 87.3137 41.4855 87.106 41.2778C86.8983 41.0702 86.6167 40.9535 86.323 40.9535H81.0127C80.719 40.9535 80.4373 41.0702 80.2296 41.2778C80.0219 41.4855 79.9053 41.7672 79.9053 42.0609C79.9053 42.3546 80.0219 42.6363 80.2296 42.844C80.4373 43.0517 80.719 43.1683 81.0127 43.1683Z"/><path d="M35.1328 43.1683H40.4431C40.7368 43.1683 41.0185 43.0517 41.2261 42.844C41.4338 42.6363 41.5505 42.3546 41.5505 42.0609C41.5505 41.7672 41.4338 41.4855 41.2261 41.2778C41.0185 41.0702 40.7368 40.9535 40.4431 40.9535H35.1328C34.8391 40.9535 34.5574 41.0702 34.3497 41.2778C34.1421 41.4855 34.0254 41.7672 34.0254 42.0609C34.0254 42.3546 34.1421 42.6363 34.3497 42.844C34.5574 43.0517 34.8391 43.1683 35.1328 43.1683Z"/><path d="M60.7278 22.8835C61.0215 22.8835 61.3032 22.7668 61.5108 22.5591C61.7185 22.3514 61.8352 22.0698 61.8352 21.7761V16.4658C61.8352 16.1721 61.7185 15.8904 61.5108 15.6828C61.3032 15.4751 61.0215 15.3584 60.7278 15.3584C60.4341 15.3584 60.1524 15.4751 59.9447 15.6828C59.737 15.8904 59.6204 16.1721 59.6204 16.4658V21.7761C59.6204 22.0698 59.737 22.3514 59.9447 22.5591C60.1524 22.7668 60.4341 22.8835 60.7278 22.8835Z"/><path d="M91.0092 63.2038L74.3873 50.8405C75.9669 48.3868 76.8564 45.5528 76.9623 42.6364C77.0681 39.7201 76.3864 36.8291 74.9888 34.2673C73.5913 31.7054 71.5294 29.5674 69.0199 28.0778C66.5105 26.5882 63.6461 25.8021 60.7279 25.8021C57.8096 25.8021 54.9452 26.5882 52.4358 28.0778C49.9263 29.5674 47.8644 31.7054 46.4669 34.2673C45.0693 36.8291 44.3876 39.7201 44.4935 42.6364C44.5993 45.5528 45.4888 48.3868 47.0684 50.8405L30.4465 63.2038C30.308 63.3069 30.1954 63.4409 30.1179 63.5952C30.0404 63.7495 30 63.9198 30 64.0924V109.534C30 109.828 30.1167 110.11 30.3244 110.317C30.532 110.525 30.8137 110.642 31.1074 110.642H90.3483C90.642 110.642 90.9236 110.525 91.1313 110.317C91.339 110.11 91.4557 109.828 91.4557 109.534V64.0924C91.4557 63.9198 91.4153 63.7495 91.3378 63.5952C91.2603 63.4409 91.1477 63.3069 91.0092 63.2038ZM46.6975 42.0609C46.6963 39.8864 47.2005 37.7413 48.1703 35.795C49.1402 33.8487 50.5492 32.1545 52.2861 30.8462C54.0231 29.5378 56.0403 28.6511 58.1787 28.256C60.317 27.8609 62.518 27.9683 64.6077 28.5696C66.6975 29.171 68.6188 30.2499 70.2201 31.7211C71.8214 33.1923 73.0588 35.0156 73.8347 37.0471C74.6105 39.0785 74.9035 41.2625 74.6905 43.4266C74.4776 45.5907 73.7645 47.6757 72.6077 49.5169L61.3886 41.1723C61.1976 41.0302 60.9658 40.9535 60.7278 40.9535C60.4897 40.9535 60.2579 41.0302 60.0669 41.1723L48.8479 49.5169C47.4401 47.2851 46.6944 44.6996 46.6975 42.0609ZM89.2407 108.427H32.2149V64.6488L60.7279 43.4411L89.2408 64.6488L89.2407 108.427Z"/><path d="M47.7328 71.7183H46.7405C46.4468 71.7183 46.1651 71.835 45.9574 72.0427C45.7497 72.2504 45.6331 72.532 45.6331 72.8257V73.8181C45.6375 77.5367 47.1091 81.1034 49.728 83.7434C52.347 86.3834 55.9019 87.8834 59.6204 87.9176V96.0211C54.902 96.2115 50.3195 97.6557 46.3444 100.205C46.0973 100.364 45.9234 100.614 45.8609 100.901C45.7984 101.188 45.8525 101.488 46.0112 101.735C46.1699 101.982 46.4204 102.156 46.7073 102.219C46.9943 102.281 47.2944 102.227 47.5415 102.068C51.478 99.5487 56.054 98.2095 60.7279 98.2095C65.4017 98.2095 69.9778 99.5487 73.9143 102.068C74.0366 102.149 74.1737 102.204 74.3175 102.231C74.4614 102.258 74.6092 102.257 74.7524 102.226C74.8956 102.196 75.0313 102.137 75.1518 102.054C75.2722 101.971 75.3749 101.865 75.4541 101.741C75.5332 101.618 75.5871 101.481 75.6126 101.336C75.6382 101.192 75.635 101.044 75.6031 100.902C75.5712 100.759 75.5113 100.624 75.4268 100.504C75.3424 100.384 75.2351 100.283 75.1111 100.205C71.1361 97.6556 66.5536 96.2115 61.8352 96.021V87.9176C65.5537 87.8834 69.1086 86.3834 71.7275 83.7434C74.3465 81.1034 75.818 77.5367 75.8224 73.8181V72.8257C75.8224 72.532 75.7058 72.2504 75.4981 72.0427C75.2904 71.835 75.0087 71.7183 74.715 71.7183H73.7227C70.9491 71.7212 68.2377 72.5406 65.9268 74.0744C63.6159 75.6082 61.8077 77.7885 60.7278 80.3432C59.6479 77.7884 57.8397 75.6082 55.5287 74.0744C53.2178 72.5406 50.5064 71.7212 47.7328 71.7183ZM47.8484 73.9338C50.96 73.9673 53.9346 75.2183 56.1349 77.4186C58.3352 79.6189 59.5862 82.5935 59.6197 85.705C56.5082 85.6715 53.5336 84.4205 51.3333 82.2202C49.133 80.0199 47.882 77.0453 47.8484 73.9338ZM73.6071 73.9338C73.5735 77.0453 72.3225 80.0199 70.1221 82.2202C67.9218 84.4205 64.9472 85.6715 61.8357 85.705C61.8693 82.5935 63.1203 79.6189 65.3206 77.4186C67.5209 75.2183 70.4955 73.9673 73.6071 73.9338Z"/></symbol><symbol id="monstera" viewBox="0 0 126 126"><path d="M99.1793 39.2397C99.1676 39.0126 99.0807 38.7958 98.9323 38.6236C98.7839 38.4515 98.5824 38.3338 98.3596 38.2891C96.4827 37.926 94.5727 37.7631 92.6615 37.803C92.6351 37.8065 92.6083 37.8046 92.5826 37.7976C92.5568 37.7906 92.5328 37.7784 92.5118 37.762C92.4908 37.7455 92.4734 37.7251 92.4604 37.7018C92.4474 37.6785 92.4392 37.6528 92.4362 37.6263C92.4281 37.6023 92.4249 37.5769 92.4269 37.5517C92.4288 37.5264 92.4359 37.5019 92.4476 37.4794C92.4593 37.457 92.4755 37.4372 92.4951 37.4212C92.5147 37.4052 92.5373 37.3934 92.5616 37.3864C94.1916 36.6646 95.9003 36.1359 97.6528 35.8111C97.7913 35.7864 97.9231 35.7334 98.0402 35.6554C98.1572 35.5773 98.2569 35.476 98.333 35.3576C98.4091 35.2392 98.46 35.1064 98.4824 34.9674C98.5049 34.8284 98.4985 34.6863 98.4636 34.5499C97.789 31.9169 96.6839 29.4139 95.1929 27.1423C95.1742 27.114 95.1543 27.0865 95.133 27.0602L94.8138 26.6651C94.6944 26.5173 94.5363 26.4057 94.3571 26.3428C94.1779 26.28 93.9847 26.2684 93.7993 26.3093C91.1975 26.914 88.6876 27.863 86.336 29.1311C86.2501 29.1843 86.1473 29.2028 86.0483 29.183C85.9492 29.1632 85.8615 29.1064 85.8026 29.0243C85.7356 28.9528 85.6986 28.8582 85.6995 28.7601C85.7004 28.6621 85.739 28.5682 85.8074 28.4979C87.3011 26.6556 89.0388 25.0258 90.9723 23.6535C91.0876 23.5732 91.1852 23.4701 91.2589 23.3504C91.3327 23.2307 91.381 23.0971 91.4008 22.9579C91.4207 22.8187 91.4116 22.6769 91.3743 22.5414C91.337 22.4058 91.2721 22.2794 91.1838 22.1701L90.7634 21.6498C89.5602 20.1104 88.0655 18.8238 86.3649 17.8638C84.6643 16.9037 82.7912 16.289 80.8529 16.0549C79.8505 15.9258 78.8318 16.0251 77.8731 16.3455C76.9144 16.6659 76.0404 17.1991 75.3165 17.9052C74.5925 18.6113 74.0373 19.4721 73.6923 20.4233C73.3473 21.3745 73.2215 22.3914 73.3242 23.3981L73.5282 25.666C73.5533 25.9449 73.5176 26.2259 73.4237 26.4897C73.3298 26.7534 73.1799 26.9936 72.9843 27.1938C72.7887 27.3939 72.552 27.5491 72.2907 27.6488C72.0293 27.7484 71.7495 27.7902 71.4704 27.771L69.2013 27.6157C68.1939 27.5346 67.1811 27.6825 66.2388 28.0483C65.2964 28.4142 64.4489 28.9885 63.7594 29.7284C63.0699 30.4683 62.5563 31.3546 62.2571 32.3212C61.9578 33.2877 61.8806 34.3095 62.0311 35.3101C62.3058 37.2429 62.9585 39.1026 63.9518 40.7826C64.945 42.4626 66.2594 43.93 67.8197 45.1008L68.3603 45.5194C68.4838 45.6136 68.6273 45.6783 68.7796 45.7085C67.9955 54.1321 67.8096 64.9738 68.225 78.0968H61.9564C63.0281 67.6085 62.5728 60.1996 61.4096 54.966C62.3915 52.835 62.8473 50.4988 62.7387 48.1545C62.7025 47.1432 62.4386 46.1532 61.9665 45.2584C61.4945 44.3636 60.8266 43.5872 60.0127 42.9871C59.1989 42.3871 58.2601 41.979 57.2666 41.7933C56.273 41.6076 55.2504 41.6491 54.2751 41.9147L52.0735 42.4859C51.8028 42.5561 51.5201 42.5667 51.2449 42.5169C50.9697 42.4672 50.7085 42.3582 50.4794 42.1976C50.2504 42.037 50.0588 41.8286 49.918 41.5867C49.7771 41.3447 49.6904 41.0751 49.6637 40.7964L49.4467 38.5296C49.3624 37.5212 49.0516 36.5449 48.5375 35.6737C48.0234 34.8024 47.3193 34.0588 46.4777 33.4983C45.6362 32.9378 44.679 32.575 43.6778 32.4369C42.6765 32.2989 41.657 32.3892 40.6955 32.7011C38.8357 33.2875 37.1097 34.2354 35.6162 35.4904C34.1227 36.7455 32.8909 38.283 31.9915 40.0152L31.667 40.6173C31.6003 40.7411 31.5599 40.8773 31.5481 41.0174C31.5364 41.1575 31.5536 41.2986 31.5987 41.4317C31.6439 41.5649 31.7159 41.6873 31.8104 41.7913C31.9049 41.8953 32.0198 41.9787 32.148 42.0363C34.3008 43.0285 36.3086 44.3098 38.1159 45.8449C38.196 45.9013 38.2513 45.9866 38.2702 46.0828C38.2891 46.179 38.2702 46.2788 38.2174 46.3615C38.1748 46.4532 38.099 46.5252 38.0053 46.563C37.9116 46.6008 37.807 46.6014 37.7129 46.5648C35.1681 45.7523 32.5266 45.2826 29.858 45.1681C29.6684 45.1632 29.4811 45.2107 29.3167 45.3055C29.1523 45.4002 29.0172 45.5384 28.9262 45.705L28.6853 46.1523C28.6692 46.1821 28.6547 46.2127 28.6417 46.2439C27.5941 48.7517 26.9685 51.4157 26.79 54.1281C26.7808 54.2686 26.8007 54.4095 26.8483 54.5419C26.896 54.6744 26.9704 54.7956 27.067 54.8979C27.1636 55.0002 27.2803 55.0815 27.4097 55.1366C27.5391 55.1917 27.6785 55.2194 27.8191 55.2181C29.6013 55.2147 31.3779 55.4192 33.1129 55.8273C33.1381 55.8297 33.1625 55.8371 33.1848 55.8492C33.207 55.8613 33.2265 55.8778 33.2422 55.8977C33.2578 55.9176 33.2693 55.9405 33.2758 55.965C33.2824 55.9894 33.2839 56.015 33.2803 56.04C33.2824 56.0666 33.2792 56.0934 33.2708 56.1188C33.2623 56.1441 33.2489 56.1675 33.2313 56.1875C33.2137 56.2076 33.1923 56.2239 33.1683 56.2355C33.1442 56.2471 33.1181 56.2538 33.0915 56.2551C31.2058 56.5692 29.3585 57.0817 27.5803 57.7841C27.3696 57.8691 27.1932 58.022 27.079 58.2186C26.9648 58.4152 26.9193 58.6443 26.9497 58.8697C27.0564 59.6614 27.1967 60.4259 27.3667 61.1419L29.2676 69.1437C29.4198 69.7829 29.7825 70.3522 30.2973 70.7597C30.8121 71.1673 31.4491 71.3893 32.1054 71.3901C32.2185 71.39 32.3316 71.3835 32.4439 71.3704L40.6042 70.4221C41.3341 70.3373 42.0996 70.2078 42.8793 70.0374C43.1012 69.9888 43.3006 69.8677 43.4461 69.693C43.5916 69.5183 43.6747 69.3001 43.6825 69.0728C43.7336 67.1595 43.5828 65.2462 43.2326 63.3647C43.2247 63.3392 43.2221 63.3123 43.2248 63.2858C43.2274 63.2592 43.2354 63.2335 43.2482 63.21C43.261 63.1866 43.2784 63.166 43.2993 63.1494C43.3201 63.1328 43.3442 63.1206 43.3698 63.1135C43.3921 63.1015 43.4166 63.0942 43.4419 63.092C43.4671 63.0898 43.4925 63.0927 43.5165 63.1007C43.5405 63.1086 43.5627 63.1214 43.5817 63.1381C43.6006 63.1549 43.616 63.1754 43.6268 63.1983C44.6038 64.6907 45.4034 66.2923 46.0093 67.9705C46.0561 68.1033 46.1299 68.2249 46.2258 68.3278C46.3218 68.4307 46.4379 68.5126 46.567 68.5685C46.6961 68.6244 46.8353 68.653 46.9759 68.6526C47.1165 68.6521 47.2555 68.6226 47.3842 68.5659C49.8688 67.4703 52.1552 65.9705 54.1506 64.1273C54.1756 64.1044 54.1993 64.0801 54.2218 64.0547L54.5591 63.6751C54.6853 63.5331 54.7695 63.3586 54.8022 63.1714C54.8349 62.9841 54.8149 62.7914 54.7443 62.615C53.7242 60.1434 52.3799 57.8188 50.747 55.7025C50.6806 55.6263 50.6455 55.5278 50.6489 55.4268C50.6523 55.3257 50.6939 55.2297 50.7653 55.1583C50.8247 55.0803 50.912 55.0283 51.0088 55.0132C51.1056 54.9981 51.2045 55.021 51.2848 55.0771C53.3438 56.2522 55.233 57.703 56.9005 59.3893C56.9983 59.4901 57.1159 59.5697 57.2458 59.6231C57.3758 59.6764 57.5153 59.7023 57.6557 59.6993C57.7961 59.6962 57.9344 59.6642 58.0619 59.6052C58.1894 59.5462 58.3034 59.4616 58.3967 59.3565L58.841 58.8564C59.2042 58.4581 59.5455 58.0403 59.8634 57.6049C60.657 62.4794 60.8529 69.1012 59.9098 78.097H47.127C46.9737 78.097 46.8224 78.1315 46.6842 78.198C46.5461 78.2645 46.4246 78.3613 46.3289 78.4812C46.2332 78.6011 46.1656 78.741 46.1312 78.8906C46.0968 79.0402 46.0965 79.1956 46.1303 79.3453L52.0008 105.379C52.2913 106.694 53.0225 107.869 54.0728 108.71C55.1231 109.55 56.4293 110.006 57.7739 110H71.8509C73.1956 110.006 74.5018 109.55 75.5521 108.71C76.6025 107.869 77.3337 106.694 77.6241 105.379L83.4948 79.3451C83.5285 79.1954 83.5282 79.04 83.4939 78.8904C83.4595 78.7409 83.3919 78.6009 83.2962 78.481C83.2005 78.3612 83.079 78.2644 82.9409 78.1979C82.8027 78.1314 82.6513 78.0968 82.498 78.0969H70.2699C69.7605 62.041 70.2073 51.0946 71.0404 43.6343C72.1013 42.3181 73.2804 41.102 74.5629 40.0012C74.6316 39.9314 74.7246 39.8908 74.8224 39.8878C74.9203 39.8849 75.0155 39.9198 75.0884 39.9853C75.1717 40.0424 75.2303 40.1291 75.2522 40.2277C75.2741 40.3264 75.2578 40.4298 75.2065 40.5169C73.9908 42.8982 73.0973 45.431 72.5496 48.0485C72.5127 48.235 72.5285 48.428 72.5951 48.6061C72.6617 48.7841 72.7765 48.94 72.9267 49.0563L73.3281 49.3673C73.3549 49.3879 73.3827 49.4072 73.4114 49.4253C75.7118 50.8688 78.2351 51.9212 80.8788 52.5396C81.0157 52.5716 81.1578 52.575 81.2961 52.5495C81.4343 52.524 81.5659 52.4702 81.6824 52.3914C81.799 52.3127 81.8981 52.2107 81.9735 52.0919C82.0488 51.973 82.0989 51.8399 82.1206 51.7008C82.4072 49.9396 82.8984 48.218 83.5841 46.5709C83.5906 46.5464 83.602 46.5235 83.6175 46.5035C83.6331 46.4836 83.6525 46.467 83.6746 46.4548C83.6968 46.4426 83.7211 46.435 83.7463 46.4324C83.7714 46.4299 83.7968 46.4325 83.821 46.4401C83.8475 46.4424 83.8734 46.4499 83.897 46.4624C83.9206 46.4748 83.9415 46.4919 83.9584 46.5125C83.9753 46.5332 83.9879 46.557 83.9954 46.5826C84.0029 46.6083 84.0053 46.6351 84.0022 46.6617C84.0042 48.5756 84.2081 50.4839 84.6105 52.355C84.66 52.5769 84.7818 52.7761 84.9569 52.921C85.132 53.0658 85.3503 53.1482 85.5774 53.1549C85.8289 53.1624 86.0781 53.1661 86.3248 53.1661C86.86 53.1661 87.3822 53.1485 87.8844 53.1135L96.0796 52.5402C96.7924 52.4901 97.4622 52.18 97.962 51.6686C98.4618 51.1572 98.757 50.4801 98.7917 49.7655L99.1875 41.55C99.2229 40.8148 99.2202 40.0375 99.1793 39.2397ZM57.5835 57.1933C55.9789 55.7027 54.2104 54.3994 52.3121 53.3083C51.8242 53.0118 51.2468 52.8986 50.6833 52.9889C50.1197 53.0793 49.6066 53.3673 49.2356 53.8016C48.853 54.228 48.6317 54.7752 48.6102 55.348C48.5886 55.9209 48.7683 56.4831 49.1178 56.9372C50.5042 58.7389 51.6723 60.699 52.5976 62.7762C51.0746 64.1549 49.3709 65.3192 47.5335 66.2367C46.9309 64.7897 46.1976 63.4008 45.3428 62.0873C45.0586 61.6478 44.6309 61.3205 44.1326 61.1612C43.6343 61.002 43.0964 61.0207 42.6103 61.214C42.1242 61.4074 41.7202 61.7635 41.467 62.2217C41.2138 62.6799 41.127 63.2118 41.2216 63.7269C41.4935 65.2018 41.6375 66.6975 41.652 68.1972C41.2135 68.277 40.7841 68.3415 40.3685 68.3898L32.2084 69.338C31.9954 69.3628 31.7808 69.3085 31.6052 69.1854C31.4296 69.0623 31.3052 68.8789 31.2556 68.67L29.3547 60.6684C29.2579 60.2609 29.1715 59.8348 29.0966 59.3951C30.5091 58.8957 31.9621 58.5197 33.4393 58.2711C33.955 58.1839 34.4246 57.9204 34.768 57.5254C35.1115 57.1305 35.3075 56.6286 35.3228 56.1051C35.338 55.5817 35.1716 55.0692 34.8517 54.6548C34.5319 54.2405 34.0785 53.95 33.5687 53.8328C32.0436 53.4779 30.4893 53.263 28.9251 53.191C29.1577 51.1485 29.6677 49.1474 30.4407 47.243C32.7068 47.4031 34.9458 47.8317 37.111 48.5198C37.6567 48.6935 38.2458 48.6703 38.7761 48.4542C39.3064 48.2381 39.7443 47.8428 40.0137 47.337C40.2944 46.8393 40.3893 46.258 40.2814 45.6968C40.1735 45.1356 39.8698 44.6311 39.4245 44.2734C37.7511 42.8606 35.923 41.6425 33.9752 40.6426C35.5614 37.7832 38.1816 35.641 41.2969 34.6563C41.9685 34.4338 42.6818 34.3671 43.383 34.4613C44.0841 34.5555 44.7546 34.8082 45.3438 35.2002C45.933 35.5921 46.4255 36.1131 46.7839 36.7238C47.1423 37.3344 47.3573 38.0186 47.4127 38.7247L47.6296 40.9915C47.7094 41.8165 48.0449 42.5959 48.5891 43.2204C48.4974 43.2855 48.4171 43.3654 48.3516 43.4569L36.539 60.3474C36.4608 60.4574 36.4051 60.5818 36.3752 60.7134C36.3452 60.845 36.3416 60.9813 36.3645 61.1143C36.3874 61.2474 36.4363 61.3746 36.5086 61.4886C36.5808 61.6026 36.6749 61.7011 36.7853 61.7786C36.8958 61.856 37.0204 61.9108 37.1521 61.9398C37.2838 61.9687 37.42 61.9713 37.5527 61.9474C37.6854 61.9234 37.812 61.8734 37.9253 61.8002C38.0386 61.727 38.1363 61.6321 38.2128 61.5209L50.0254 44.6303C50.0888 44.5374 50.1364 44.4345 50.166 44.326C50.9383 44.6245 51.7846 44.6736 52.5862 44.4663L54.7879 43.8951C55.4695 43.7057 56.1852 43.6739 56.8809 43.8023C57.5765 43.9307 58.2339 44.2158 58.8033 44.6361C59.3727 45.0564 59.8391 45.6008 60.1674 46.2282C60.4956 46.8556 60.677 47.5495 60.6979 48.2574C60.8386 51.5251 59.7241 54.7226 57.5835 57.1933ZM75.6307 104.929C75.4405 105.789 74.9618 106.559 74.2741 107.109C73.5864 107.66 72.7313 107.958 71.8509 107.954H57.7739C56.8935 107.958 56.0384 107.66 55.3507 107.109C54.663 106.559 54.1843 105.789 53.9941 104.929L48.4051 80.1428H81.2199L75.6307 104.929ZM97.1464 41.4513L96.7507 49.6668C96.7402 49.8812 96.6517 50.0843 96.5017 50.2377C96.3518 50.3911 96.1509 50.4841 95.937 50.4991L87.7421 51.0724C87.3245 51.1016 86.8906 51.1173 86.4451 51.1198C86.1833 49.643 86.0496 48.1464 86.0455 46.6466C86.0462 46.1205 85.8628 45.6108 85.5271 45.2061C85.1914 44.8014 84.7247 44.5272 84.2081 44.4312C84.0631 44.403 83.9157 44.3887 83.7681 44.3887C83.3213 44.3884 82.8847 44.5223 82.5147 44.7731C82.1448 45.0239 81.8585 45.38 81.6928 45.7954C81.0945 47.2441 80.6294 48.7444 80.3033 50.2778C78.3286 49.715 76.4399 48.8851 74.6893 47.8111C75.2164 45.5987 76.0038 43.4567 77.035 41.4301C77.295 40.9194 77.3681 40.3336 77.2415 39.7745C77.115 39.2155 76.7968 38.7185 76.3423 38.3699C75.8977 38.0114 75.3403 37.8229 74.7697 37.838C74.1991 37.8532 73.6524 38.071 73.2275 38.4526C71.5623 39.8752 70.0639 41.4825 68.7611 43.2437C66.202 41.2106 64.5181 38.2731 64.0558 35.0352C63.946 34.3355 63.9966 33.6199 64.2037 32.9427C64.4109 32.2654 64.7692 31.6442 65.2515 31.1261C65.7339 30.6079 66.3276 30.2064 66.9878 29.9519C67.648 29.6974 68.3573 29.5966 69.0622 29.657L71.3313 29.8123C72.1573 29.868 72.9799 29.6637 73.6841 29.2279C73.7333 29.3291 73.7989 29.4215 73.8784 29.5012L88.597 43.9235C88.7907 44.1132 89.0518 44.2182 89.3227 44.2153C89.5937 44.2123 89.8524 44.1017 90.0419 43.9078C90.2315 43.7139 90.3363 43.4526 90.3334 43.1813C90.3304 42.91 90.22 42.651 90.0263 42.4612L75.3076 28.0389C75.2264 27.9611 75.1328 27.8974 75.0306 27.8504C75.4507 27.1361 75.637 26.3081 75.5636 25.4825L75.3595 23.2146C75.284 22.5104 75.3694 21.7982 75.6094 21.1319C75.8493 20.4656 76.2374 19.8627 76.7444 19.3687C77.2514 18.8748 77.864 18.5028 78.5358 18.2809C79.2076 18.0589 79.921 17.9929 80.622 18.0877C83.8649 18.4815 86.834 20.1036 88.9195 22.6209C87.1892 23.963 85.6165 25.4974 84.2319 27.1947C83.8602 27.6284 83.6545 28.1802 83.6517 28.7517C83.6488 29.3232 83.849 29.8771 84.2165 30.3144C84.5744 30.7618 85.0775 31.0696 85.6385 31.1842C86.1995 31.2988 86.7829 31.2131 87.2873 30.9418C89.2888 29.8659 91.4107 29.0316 93.6085 28.4563C94.7187 30.1854 95.5882 32.0581 96.1927 34.0226C94.6686 34.382 93.1805 34.8799 91.7468 35.5102C91.2673 35.7193 90.875 36.0885 90.6369 36.5547C90.3987 37.021 90.3294 37.5555 90.4407 38.0671C90.552 38.5788 90.8371 39.036 91.2474 39.3608C91.6576 39.6857 92.1677 39.858 92.6907 39.8485C94.1883 39.8203 95.6856 39.9218 97.1658 40.1521C97.1731 40.5982 97.1666 41.0329 97.1464 41.4513Z"/></symbol><symbol id="outdoor-plant" viewBox="0 0 126 126"><path d="M78.9376 80.6361C78.9376 80.3424 78.821 80.0607 78.6133 79.853C78.4056 79.6454 78.1239 79.5287 77.8302 79.5287C74.6293 79.5327 71.5035 80.4991 68.8588 82.3023C66.2141 84.1056 64.1728 86.6625 63 89.6408C61.8271 86.6625 59.7858 84.1056 57.1411 82.3023C54.4964 80.4991 51.3706 79.5327 48.1697 79.5287C47.876 79.5287 47.5943 79.6454 47.3866 79.853C47.1789 80.0607 47.0623 80.3424 47.0623 80.6361C47.0675 84.6694 48.6 88.551 51.3515 91.5001C54.103 94.4491 57.8693 96.2466 61.8925 96.531V105.292C56.8793 105.484 52.0087 107.013 47.7859 109.722C47.5388 109.88 47.3648 110.131 47.3023 110.418C47.2398 110.705 47.2939 111.005 47.4527 111.252C47.6114 111.499 47.8618 111.673 48.1488 111.735C48.4358 111.798 48.7358 111.744 48.9829 111.585C53.1673 108.906 58.0316 107.483 63 107.483C67.9683 107.483 72.8326 108.906 77.017 111.585C77.1393 111.664 77.276 111.717 77.4191 111.743C77.5622 111.769 77.709 111.766 77.8511 111.735C77.9932 111.704 78.1278 111.646 78.2473 111.563C78.3667 111.48 78.4686 111.374 78.5472 111.252C78.6258 111.129 78.6796 110.993 78.7054 110.85C78.7312 110.707 78.7285 110.56 78.6976 110.418C78.6666 110.276 78.608 110.141 78.525 110.022C78.4421 109.902 78.3364 109.8 78.214 109.722C73.9912 107.013 69.1206 105.484 64.1074 105.292V96.531C68.1306 96.2466 71.8969 94.4491 74.6484 91.5001C77.3999 88.551 78.9324 84.6694 78.9376 80.6361ZM76.6746 81.7917C76.3972 85.0189 74.9891 88.0445 72.6987 90.3349C70.4083 92.6252 67.3827 94.0333 64.1556 94.3108C64.433 91.0836 65.8411 88.058 68.1315 85.7677C70.4219 83.4773 73.4474 82.0692 76.6746 81.7917ZM49.3253 81.7917C52.5525 82.0692 55.578 83.4773 57.8684 85.7676C60.1588 88.058 61.5669 91.0836 61.8443 94.3108C58.6172 94.0333 55.5916 92.6252 53.3012 90.3349C51.0108 88.0445 49.6027 85.0189 49.3253 81.7917Z"/><path d="M63 58.6997C66.2337 58.6997 69.3948 57.7408 72.0836 55.9442C74.7723 54.1476 76.8679 51.5941 78.1054 48.6065C79.3429 45.619 79.6667 42.3315 79.0358 39.1599C78.4049 35.9884 76.8477 33.0751 74.5611 30.7885C72.2745 28.5019 69.3613 26.9447 66.1897 26.3138C63.0181 25.683 59.7306 26.0067 56.7431 27.2442C53.7555 28.4817 51.202 30.5773 49.4054 33.2661C47.6088 35.9548 46.6499 39.1159 46.6499 42.3496C46.6548 46.6845 48.379 50.8403 51.4442 53.9055C54.5093 56.9707 58.6652 58.6948 63 58.6997ZM63 28.2146C65.7957 28.2147 68.5286 29.0437 70.8531 30.5969C73.1776 32.1501 74.9893 34.3577 76.0592 36.9406C77.129 39.5235 77.4089 42.3656 76.8635 45.1075C76.3181 47.8495 74.9718 50.3681 72.995 52.345C71.0181 54.3218 68.4995 55.668 65.7575 56.2134C63.0156 56.7588 60.1734 56.4789 57.5906 55.409C55.0077 54.3391 52.8001 52.5274 51.2469 50.2029C49.6937 47.8783 48.8647 45.1454 48.8647 42.3498C48.869 38.6022 50.3596 35.0093 53.0096 32.3594C55.6595 29.7094 59.2524 28.2189 63 28.2146Z"/><path d="M78.226 56.0097C78.1232 55.9068 78.0011 55.8253 77.8667 55.7696C77.7324 55.7139 77.5884 55.6853 77.4429 55.6853C77.2975 55.6853 77.1535 55.7139 77.0191 55.7696C76.8848 55.8253 76.7627 55.9068 76.6598 56.0097C76.557 56.1125 76.4754 56.2346 76.4198 56.369C76.3641 56.5033 76.3355 56.6473 76.3354 56.7928C76.3354 56.9382 76.3641 57.0822 76.4197 57.2166C76.4754 57.3509 76.557 57.473 76.6598 57.5759L79.1913 60.1072C79.2941 60.2101 79.4162 60.2916 79.5506 60.3473C79.685 60.403 79.829 60.4316 79.9744 60.4316C80.1198 60.4316 80.2639 60.403 80.3982 60.3473C80.5326 60.2916 80.6547 60.2101 80.7575 60.1072C80.8603 60.0044 80.9419 59.8823 80.9976 59.7479C81.0532 59.6136 81.0819 59.4696 81.0819 59.3241C81.0819 59.1787 81.0532 59.0347 80.9976 58.9003C80.9419 58.7659 80.8603 58.6439 80.7575 58.541L78.226 56.0097Z"/><path d="M47.7738 28.6898C47.8767 28.7926 47.9987 28.8742 48.1331 28.9298C48.2675 28.9855 48.4115 29.0141 48.5569 29.0141C48.7023 29.0141 48.8464 28.9855 48.9807 28.9298C49.1151 28.8742 49.2372 28.7926 49.34 28.6898C49.4429 28.5869 49.5244 28.4649 49.5801 28.3305C49.6357 28.1961 49.6644 28.0521 49.6644 27.9067C49.6644 27.7612 49.6357 27.6172 49.5801 27.4829C49.5244 27.3485 49.4429 27.2264 49.34 27.1236L46.8085 24.5922C46.6008 24.3845 46.3192 24.2678 46.0254 24.2678C45.7317 24.2678 45.45 24.3845 45.2423 24.5922C45.0346 24.7999 44.918 25.0816 44.918 25.3753C44.918 25.669 45.0347 25.9507 45.2423 26.1584L47.7738 28.6898Z"/><path d="M79.1913 24.5922L76.6598 27.1236C76.4521 27.3313 76.3354 27.613 76.3354 27.9068C76.3355 28.2005 76.4521 28.4822 76.6598 28.6899C76.8675 28.8975 77.1492 29.0142 77.4429 29.0142C77.7367 29.0142 78.0183 28.8975 78.226 28.6898L80.7575 26.1584C80.9652 25.9507 81.0819 25.669 81.0819 25.3753C81.0819 25.0816 80.9652 24.7999 80.7575 24.5922C80.5498 24.3845 80.2681 24.2678 79.9744 24.2678C79.6807 24.2678 79.399 24.3845 79.1913 24.5922Z"/><path d="M49.34 56.0096C49.1323 55.802 48.8506 55.6854 48.5569 55.6854C48.2632 55.6854 47.9815 55.802 47.7738 56.0096L45.2423 58.541C45.0347 58.7487 44.918 59.0304 44.918 59.3241C44.918 59.6178 45.0346 59.8995 45.2423 60.1072C45.45 60.3149 45.7317 60.4316 46.0254 60.4316C46.3192 60.4316 46.6008 60.3149 46.8085 60.1072L49.34 57.5758C49.4429 57.473 49.5244 57.3509 49.5801 57.2165C49.6358 57.0822 49.6644 56.9382 49.6644 56.7927C49.6644 56.6473 49.6358 56.5033 49.5801 56.3689C49.5244 56.2346 49.4429 56.1125 49.34 56.0096Z"/><path d="M90.0032 41.2422H83.4255C83.1318 41.2422 82.8502 41.3589 82.6425 41.5666C82.4348 41.7743 82.3181 42.056 82.3181 42.3497C82.3181 42.6434 82.4348 42.9251 82.6425 43.1327C82.8502 43.3404 83.1318 43.4571 83.4255 43.4571H90.0032C90.2969 43.4571 90.5785 43.3404 90.7862 43.1327C90.9939 42.9251 91.1106 42.6434 91.1106 42.3497C91.1106 42.056 90.9939 41.7743 90.7862 41.5666C90.5785 41.3589 90.2969 41.2422 90.0032 41.2422Z"/><path d="M42.5744 41.2422H35.9968C35.7031 41.2422 35.4214 41.3589 35.2138 41.5666C35.0061 41.7743 34.8894 42.056 34.8894 42.3497C34.8894 42.6434 35.0061 42.9251 35.2138 43.1327C35.4214 43.3404 35.7031 43.4571 35.9968 43.4571H42.5744C42.8682 43.4571 43.1498 43.3404 43.3575 43.1327C43.5652 42.9251 43.6819 42.6434 43.6819 42.3497C43.6819 42.056 43.5652 41.7743 43.3575 41.5666C43.1498 41.3589 42.8682 41.2422 42.5744 41.2422Z"/><path d="M61.8926 62.7752V69.3528C61.8926 69.6465 62.0093 69.9282 62.2169 70.1359C62.4246 70.3436 62.7063 70.4602 63 70.4602C63.2937 70.4602 63.5754 70.3436 63.7831 70.1359C63.9907 69.9282 64.1074 69.6465 64.1074 69.3528V62.7752C64.1074 62.4815 63.9907 62.1998 63.7831 61.9921C63.5754 61.7845 63.2937 61.6678 63 61.6678C62.7063 61.6678 62.4246 61.7845 62.2169 61.9921C62.0093 62.1998 61.8926 62.4815 61.8926 62.7752Z"/><path d="M63 23.0315C63.2937 23.0315 63.5754 22.9148 63.7831 22.7072C63.9907 22.4995 64.1074 22.2178 64.1074 21.9241V15.3464C64.1074 15.0527 63.9907 14.771 63.7831 14.5633C63.5754 14.3557 63.2937 14.239 63 14.239C62.7063 14.239 62.4246 14.3557 62.2169 14.5633C62.0093 14.771 61.8926 15.0527 61.8926 15.3464V21.924C61.8926 22.0694 61.9212 22.2134 61.9768 22.3478C62.0325 22.4822 62.1141 22.6043 62.2169 22.7071C62.3197 22.81 62.4418 22.8916 62.5762 22.9472C62.7106 23.0029 62.8546 23.0315 63 23.0315Z"/></symbol><symbol id="pruning" viewBox="0 0 126 126"><path d="M91.1971 75.2192L71.5264 55.5483L65.8753 49.8973V29.9438C65.8723 27.2428 64.798 24.6533 62.8882 22.7434C60.9783 20.8336 58.3889 19.7592 55.6879 19.7561H53.4892C53.1955 19.7561 52.9138 19.8728 52.7061 20.0805C52.4984 20.2881 52.3818 20.5698 52.3818 20.8635V46.1355L35.9502 29.7038C35.8474 29.6009 35.7253 29.5193 35.5909 29.4637C35.4566 29.408 35.3126 29.3793 35.1671 29.3793C35.0217 29.3793 34.8776 29.408 34.7433 29.4637C34.6089 29.5193 34.4868 29.6009 34.384 29.7038L32.8293 31.2585C30.9217 33.1705 29.8503 35.7611 29.8503 38.462C29.8503 41.1629 30.9217 43.7535 32.8293 45.6655L50.6985 63.5347C51.2767 64.1132 51.9221 64.6205 52.6208 65.0457V92.1134C52.6141 94.6612 53.1867 97.1772 54.2952 99.4712C55.4038 101.765 57.0192 103.777 59.0196 105.355C59.6207 105.832 60.344 106.13 61.1066 106.214C61.8692 106.298 62.6401 106.166 63.3309 105.832C64.0217 105.498 64.6044 104.977 65.0122 104.327C65.4199 103.677 65.6362 102.925 65.6362 102.158V68.0649L89.0963 91.525C89.4725 91.9045 89.92 92.2058 90.4131 92.4116C90.9062 92.6175 91.4351 92.7237 91.9694 92.7242C92.4309 92.7237 92.8891 92.6457 93.3247 92.4933C94.0511 92.244 94.6917 91.7933 95.1717 91.1938C95.6518 90.5943 95.9516 89.8707 96.036 89.1073C96.3348 86.577 96.0544 84.0119 95.2161 81.606C94.3778 79.2 93.0035 77.016 91.1971 75.2192ZM55.6879 21.9709C57.8017 21.9734 59.8282 22.8141 61.3228 24.3088C62.8174 25.8035 63.6581 27.83 63.6605 29.9438V47.6826L62.7795 46.8016C61.7246 45.7494 60.3579 45.0665 58.8832 44.8547C57.4085 44.6429 55.9048 44.9135 54.5965 45.6262V21.9709H55.6879ZM34.3955 44.0997C32.9025 42.6034 32.0641 40.5759 32.0641 38.4621C32.0641 36.3484 32.9025 34.3209 34.3955 32.8246L35.1671 32.0531L52.2532 49.1391C52.4609 49.3468 52.7425 49.4634 53.0362 49.4635C53.3299 49.4635 53.6115 49.3469 53.8193 49.1393L54.5908 48.3679V48.3677C55.4697 47.4908 56.6605 46.9984 57.902 46.9984C59.1435 46.9984 60.3343 47.4908 61.2132 48.3677L69.177 56.3312L63.5396 61.9689C62.0444 63.4639 60.0166 64.3038 57.9022 64.3038C55.7877 64.3038 53.7599 63.4639 52.2647 61.9689L34.3955 44.0997ZM63.4214 102.158C63.4214 102.509 63.3225 102.852 63.136 103.15C62.9496 103.447 62.6831 103.685 62.3673 103.838C62.0514 103.991 61.6989 104.051 61.3502 104.013C61.0016 103.974 60.6708 103.838 60.3959 103.62C58.6577 102.249 57.254 100.5 56.2907 98.507C55.3274 96.5137 54.8299 94.3274 54.8356 92.1134V66.0494C57.3908 66.8514 60.1587 66.619 62.5444 65.4021H62.9735L63.4214 65.85L63.4214 102.158ZM93.8355 88.8534C93.7953 89.2019 93.6576 89.532 93.4384 89.8059C93.2191 90.0797 92.9271 90.2862 92.5958 90.4016C92.2645 90.517 91.9074 90.5367 91.5654 90.4584C91.2235 90.3801 90.9105 90.207 90.6625 89.9589L64.6723 63.9686L70.7434 57.8975L89.6311 76.7852C91.2007 78.3466 92.3948 80.2444 93.1232 82.3351C93.8515 84.4258 94.0951 86.6547 93.8355 88.8534Z"/><path d="M62.0835 56.3316C62.0835 55.3642 61.748 54.4267 61.1343 53.6789C60.5206 52.9311 59.6666 52.4192 58.7178 52.2305C57.769 52.0417 56.7841 52.1878 55.931 52.6439C55.0778 53.0999 54.4092 53.8377 54.039 54.7314C53.6688 55.6252 53.6199 56.6197 53.9008 57.5454C54.1816 58.4711 54.7748 59.2708 55.5791 59.8083C56.3835 60.3457 57.3494 60.5876 58.3121 60.4927C59.2748 60.3979 60.1749 59.9721 60.8589 59.288C61.2483 58.9007 61.5571 58.4399 61.7673 57.9324C61.9775 57.425 62.085 56.8808 62.0835 56.3316ZM59.2926 57.722C58.9708 58.0437 58.5475 58.2439 58.0947 58.2885C57.6419 58.333 57.1877 58.2192 56.8094 57.9664C56.4311 57.7136 56.1521 57.3375 56.0201 56.9021C55.888 56.4667 55.9111 55.999 56.0852 55.5786C56.2593 55.1583 56.5739 54.8113 56.9751 54.5969C57.3764 54.3824 57.8396 54.3138 58.2859 54.4026C58.7321 54.4914 59.1337 54.7322 59.4223 55.0839C59.711 55.4356 59.8687 55.8766 59.8686 56.3316C59.8693 56.5899 59.8187 56.8458 59.7199 57.0845C59.621 57.3232 59.4757 57.5398 59.2926 57.722Z"/></symbol><symbol id="snake-plant" viewBox="0 0 126 126"><path d="M98.5781 23.5556C98.439 23.2752 98.2066 23.0521 97.9208 22.9245C97.635 22.7969 97.3137 22.773 97.0122 22.8567C91.9489 24.4297 87.1368 26.7194 82.7222 29.6559C82.6214 24.7494 81.8229 20.3836 80.3249 16.9628C80.243 16.7755 80.1194 16.6095 79.9635 16.4772C79.8077 16.3449 79.6238 16.2499 79.4257 16.1993C79.2276 16.1488 79.0207 16.1441 78.8205 16.1856C78.6204 16.2271 78.4323 16.3137 78.2706 16.4388C75.0429 18.9362 72.0088 22.8255 69.4176 27.641C67.9792 23.2061 66.0982 19.405 63.8453 16.5174C63.7196 16.3563 63.5587 16.2259 63.3751 16.1363C63.1914 16.0466 62.9897 16 62.7853 16C62.5809 16 62.3792 16.0466 62.1955 16.1363C62.0119 16.2259 61.8511 16.3563 61.7253 16.5174C59.4726 19.4049 57.5908 23.205 56.1519 27.639C53.5609 22.8244 50.5271 18.9359 47.2998 16.4388C47.1382 16.3137 46.9501 16.2271 46.75 16.1856C46.5498 16.1441 46.3428 16.1488 46.1448 16.1993C45.9467 16.2499 45.7628 16.3449 45.6069 16.4772C45.4511 16.6095 45.3275 16.7755 45.2455 16.9628C43.7758 20.3188 42.9809 24.5854 42.8563 29.3788C38.5581 26.5728 33.8907 24.3778 28.9882 22.8567C28.6866 22.7726 28.3651 22.7963 28.0792 22.9239C27.7932 23.0515 27.5608 23.2748 27.4219 23.5555C27.2831 23.8361 27.2465 24.1564 27.3186 24.4611C27.3906 24.7658 27.5668 25.0358 27.8166 25.2245C35.585 31.0939 40.4843 49.1304 42.3206 57.0828L42.0574 57.5806C38.0647 65.2592 35.9039 73.758 35.7442 82.4111C35.5844 91.0643 37.4301 99.637 41.1366 107.458C41.5087 108.22 42.0874 108.862 42.8067 109.312C43.5261 109.761 44.3572 110 45.2054 110H80.3475C81.1957 110 82.0268 109.761 82.7461 109.312C83.4654 108.862 84.0441 108.22 84.4162 107.458C88.1151 99.6532 89.9609 91.0997 89.8096 82.4643C89.6582 73.8289 87.5137 65.3453 83.5435 57.6753C85.2639 50.0666 90.2106 31.2485 98.1836 25.2245C98.4334 25.0358 98.6095 24.7658 98.6815 24.4611C98.7535 24.1564 98.7169 23.8362 98.5781 23.5556ZM78.5173 19.7608C79.5914 23.0114 80.0906 27.0763 80.0182 31.5656C77.0296 33.7997 74.3275 36.3934 71.9731 39.2881C71.6348 36.6585 71.1468 34.0503 70.5117 31.4762C72.8271 26.5825 75.5943 22.4956 78.5173 19.7608ZM62.7854 19.6542C67.2474 26.4429 69.9719 37.8618 69.9719 50.0896C69.9719 52.3862 69.8696 54.6504 69.6836 56.8645H55.8873C55.7013 54.6504 55.599 52.3862 55.599 50.0896C55.599 37.8618 58.3235 26.443 62.7854 19.6542ZM47.0534 19.7608C49.9763 22.4955 52.7433 26.5821 55.0586 31.4754C54.4588 33.9017 53.9908 36.3586 53.6565 38.8355C51.2707 35.9853 48.5481 33.435 45.5483 31.2403C45.5047 26.8799 46.0054 22.9325 47.0534 19.7608ZM53.2289 42.6834C53.0196 45.0907 52.9102 47.5668 52.9102 50.0896C52.9102 52.3946 53.0092 54.6552 53.1859 56.8645H45.0403C43.5411 50.2148 39.7814 35.9167 33.6046 27.4682C39.0452 29.8814 47.4773 34.6377 53.2289 42.6834ZM81.9927 106.293C81.8413 106.6 81.6068 106.858 81.3159 107.038C81.0251 107.218 80.6895 107.312 80.3475 107.311H45.2055C44.8635 107.312 44.528 107.218 44.2371 107.038C43.9463 106.858 43.7118 106.6 43.5604 106.293C42.8059 104.717 42.1335 103.104 41.5457 101.459H84.0074C83.4196 103.104 82.7472 104.717 81.9927 106.293ZM84.8824 98.7949C84.8048 98.7787 84.7257 98.7703 84.6464 98.7697H40.8695C40.8023 98.7712 40.7353 98.7783 40.6693 98.791C39.1814 93.8071 38.425 88.6335 38.4236 83.4322C38.405 75.1404 40.337 66.9605 44.0635 59.5534H81.4892C85.2159 66.9605 87.1479 75.1404 87.1293 83.4322C87.1279 88.6348 86.371 93.8097 84.8824 98.7949ZM80.9599 56.8645H72.6607V42.8359C78.4026 34.7135 86.9116 29.9095 92.3906 27.475C86.2168 35.9246 82.4586 50.2166 80.9599 56.8645Z"/></symbol><symbol id="temperature" viewBox="0 0 126 126"><path d="M69.1933 72.5372C68.1134 69.9824 66.3052 67.8022 63.9943 66.2684C61.6833 64.7346 58.972 63.9151 56.1984 63.9123H55.2061C54.9123 63.9123 54.6307 64.0289 54.423 64.2366C54.2153 64.4443 54.0986 64.726 54.0986 65.0197V66.012C54.1031 69.7307 55.5746 73.2974 58.1936 75.9373C60.8125 78.5773 64.3673 80.0773 68.0858 80.1115V88.2148C63.3674 88.4053 58.785 89.8495 54.81 92.3989C54.6861 92.4768 54.5787 92.5784 54.4943 92.698C54.4098 92.8176 54.3499 92.9527 54.318 93.0956C54.2862 93.2384 54.2829 93.3862 54.3085 93.5304C54.3341 93.6745 54.388 93.8121 54.4671 93.9353C54.5462 94.0585 54.6489 94.1647 54.7694 94.248C54.8898 94.3312 55.0255 94.3897 55.1687 94.4201C55.3119 94.4505 55.4597 94.4522 55.6036 94.4252C55.7474 94.3981 55.8845 94.3428 56.0069 94.2624C59.9433 91.7426 64.5194 90.4034 69.1933 90.4034C73.8672 90.4034 78.4433 91.7426 82.3798 94.2624C82.5021 94.3428 82.6392 94.3981 82.783 94.4252C82.9269 94.4522 83.0747 94.4505 83.2179 94.4201C83.3611 94.3897 83.4968 94.3312 83.6173 94.248C83.7377 94.1647 83.8405 94.0585 83.9196 93.9353C83.9987 93.8121 84.0526 93.6745 84.0781 93.5304C84.1037 93.3862 84.1005 93.2384 84.0686 93.0956C84.0367 92.9527 83.9768 92.8176 83.8923 92.698C83.8079 92.5784 83.7006 92.4768 83.5766 92.3989C79.6016 89.8495 75.0191 88.4052 70.3007 88.2148V80.1115C74.0192 80.0773 77.574 78.5773 80.193 75.9374C82.8119 73.2974 84.2835 69.7307 84.2879 66.012V65.0197C84.2879 64.726 84.1712 64.4443 83.9636 64.2366C83.7559 64.0289 83.4742 63.9123 83.1805 63.9123H82.1882C79.4146 63.9151 76.7032 64.7346 74.3923 66.2684C72.0813 67.8022 70.2732 69.9824 69.1933 72.5372ZM56.314 66.1278C59.4255 66.1614 62.4001 67.4124 64.6004 69.6127C66.8008 71.813 68.0518 74.7876 68.0854 77.8991C64.9738 77.8656 61.9992 76.6146 59.7989 74.4143C57.5986 72.214 56.3476 69.2394 56.314 66.1278ZM82.0726 66.1278C82.039 69.2394 80.788 72.214 78.5877 74.4143C76.3874 76.6146 73.4127 77.8656 70.3012 77.8991C70.3348 74.7876 71.5858 71.813 73.7861 69.6127C75.9864 67.4124 78.9611 66.1614 82.0726 66.1278Z"/><path d="M99.4746 55.3978L69.8542 33.3662C69.6631 33.2241 69.4314 33.1474 69.1933 33.1474C68.9552 33.1474 68.7234 33.2241 68.5324 33.3662L42.6957 52.5835V28.9478C42.6957 27.414 42.0863 25.9429 41.0017 24.8583C39.9171 23.7737 38.4461 23.1644 36.9122 23.1644C35.3784 23.1644 33.9073 23.7737 32.8227 24.8583C31.7381 25.9429 31.1288 27.414 31.1288 28.9478V63.4922C29.4963 64.5145 28.168 65.956 27.2824 67.6664C26.3967 69.3768 25.9861 71.2935 26.0934 73.2166C26.2454 75.9269 27.405 78.4824 29.3446 80.3816C31.2841 82.2808 33.8635 83.3864 36.5764 83.4814C36.6901 83.4848 36.803 83.4866 36.9162 83.4866C37.4345 83.4865 37.9522 83.4499 38.4653 83.3768V101.728C38.4653 102.022 38.582 102.303 38.7897 102.511C38.9974 102.719 39.2791 102.835 39.5728 102.835H98.8137C99.1074 102.835 99.3891 102.719 99.5967 102.511C99.8044 102.303 99.9211 102.022 99.9211 101.728V56.2864C99.9211 56.1137 99.8807 55.9434 99.8032 55.7891C99.7257 55.6348 99.6131 55.5008 99.4746 55.3978ZM36.6438 81.2675C34.754 81.2086 32.9361 80.5299 31.4701 79.3361C30.004 78.1422 28.9712 76.4994 28.5307 74.6608C28.0903 72.8221 28.2666 70.8897 29.0326 69.1611C29.7985 67.4326 31.1116 66.0038 32.7695 65.095C32.9433 64.9995 33.0883 64.859 33.1893 64.6883C33.2903 64.5176 33.3436 64.3228 33.3436 64.1245V28.9478C33.3436 28.0014 33.7196 27.0937 34.3888 26.4244C35.0581 25.7552 35.9658 25.3792 36.9122 25.3792C37.8587 25.3792 38.7664 25.7552 39.4356 26.4244C40.1048 27.0937 40.4808 28.0014 40.4808 28.9478V64.1245C40.4808 64.3228 40.5341 64.5176 40.6351 64.6883C40.7361 64.859 40.8811 64.9995 41.055 65.095C42.7532 66.0259 44.0884 67.5017 44.8453 69.2843C45.6023 71.0669 45.7368 73.0525 45.2271 74.9209C44.7175 76.7893 43.5935 78.4316 42.0363 79.583C40.4791 80.7344 38.5795 81.3278 36.6438 81.2675ZM97.7063 100.621H40.6803V82.8143C42.5743 82.1111 44.234 80.8925 45.4721 79.296C46.7102 77.6995 47.4774 75.7887 47.687 73.7792C47.8966 71.7698 47.5403 69.7418 46.6584 67.9242C45.7764 66.1065 44.4039 64.5716 42.6958 63.4927V55.3438L69.1934 35.635L97.7064 56.8428L97.7063 100.621Z"/><path d="M38.0197 67.6546V31.4492C38.0197 31.1555 37.9031 30.8738 37.6954 30.6661C37.4877 30.4584 37.206 30.3417 36.9123 30.3417C36.6186 30.3417 36.3369 30.4584 36.1292 30.6661C35.9216 30.8738 35.8049 31.1555 35.8049 31.4492V67.6546C34.5507 67.9278 33.4418 68.6549 32.6912 69.6962C31.9407 70.7375 31.6015 72.0194 31.7389 73.2957C31.8763 74.5719 32.4805 75.7522 33.4355 76.6099C34.3904 77.4676 35.6287 77.942 36.9123 77.942C38.1959 77.942 39.4342 77.4676 40.3891 76.6099C41.3441 75.7522 41.9483 74.5719 42.0857 73.2957C42.2231 72.0194 41.8839 70.7375 41.1334 69.6962C40.3828 68.6549 39.2739 67.9278 38.0197 67.6546ZM36.9123 75.7247C36.3213 75.7247 35.7435 75.5494 35.2521 75.2211C34.7607 74.8927 34.3777 74.4259 34.1515 73.8799C33.9254 73.3338 33.8662 72.733 33.9815 72.1533C34.0968 71.5736 34.3815 71.0412 34.7994 70.6233C35.2173 70.2054 35.7498 69.9208 36.3295 69.8055C36.9092 69.6902 37.51 69.7494 38.0561 69.9756C38.6021 70.2017 39.0688 70.5848 39.3972 71.0762C39.7255 71.5676 39.9008 72.1454 39.9008 72.7364C39.8999 73.5287 39.5847 74.2883 39.0245 74.8486C38.4642 75.4088 37.7046 75.7239 36.9123 75.7247Z"/><path d="M64.1034 59.3863C64.1034 59.68 64.2201 59.9617 64.4278 60.1694C64.6355 60.3771 64.9172 60.4937 65.2109 60.4937C65.5046 60.4937 65.7863 60.3771 65.9939 60.1694C66.2016 59.9617 66.3183 59.68 66.3183 59.3863C66.311 59.095 66.4167 58.8121 66.6132 58.5968C67.0605 58.0066 67.3027 57.2864 67.3027 56.5458C67.3027 55.8052 67.0605 55.0849 66.6132 54.4947C66.4231 54.2759 66.3183 53.9958 66.3183 53.706C66.3182 53.4161 66.4229 53.136 66.6129 52.9171C67.0672 52.3309 67.3103 51.6084 67.3027 50.8668C67.3027 50.5731 67.186 50.2914 66.9783 50.0837C66.7706 49.876 66.489 49.7593 66.1952 49.7593C65.9015 49.7593 65.6199 49.876 65.4122 50.0837C65.2045 50.2914 65.0878 50.5731 65.0878 50.8668C65.095 51.1576 64.9894 51.44 64.7932 51.6549C64.3457 52.2449 64.1035 52.9651 64.1034 53.7056C64.1034 54.4461 64.3456 55.1663 64.793 55.7564C64.9831 55.9754 65.0878 56.2557 65.0878 56.5458C65.0878 56.8358 64.9831 57.1161 64.793 57.3351C64.3387 57.9217 64.0958 58.6445 64.1034 59.3863Z"/><path d="M71.0839 59.3863C71.0839 59.68 71.2006 59.9617 71.4083 60.1694C71.616 60.3771 71.8976 60.4937 72.1913 60.4937C72.485 60.4937 72.7667 60.3771 72.9744 60.1694C73.1821 59.9617 73.2988 59.68 73.2988 59.3863C73.2915 59.095 73.3972 58.8121 73.5936 58.5968C74.041 58.0066 74.2831 57.2864 74.2831 56.5458C74.2831 55.8052 74.041 55.0849 73.5936 54.4947C73.4035 54.2759 73.2988 53.9958 73.2988 53.706C73.2987 53.4161 73.4033 53.136 73.5934 52.9171C74.0477 52.3309 74.2907 51.6084 74.2831 50.8668C74.2831 50.5731 74.1665 50.2914 73.9588 50.0837C73.7511 49.876 73.4694 49.7593 73.1757 49.7593C72.882 49.7593 72.6003 49.876 72.3926 50.0837C72.185 50.2914 72.0683 50.5731 72.0683 50.8668C72.0754 51.1576 71.9699 51.44 71.7736 51.6549C71.3262 52.2449 71.084 52.9651 71.0839 53.7056C71.0839 54.4461 71.326 55.1663 71.7734 55.7564C71.9636 55.9754 72.0683 56.2557 72.0683 56.5458C72.0683 56.8358 71.9636 57.1161 71.7734 57.3351C71.3192 57.9217 71.0762 58.6445 71.0839 59.3863Z"/></symbol><symbol id="time-consuming" viewBox="0 0 126 126"><path d="M101.408 23.7708C101.408 23.477 101.292 23.1954 101.084 22.9877C100.876 22.78 100.594 22.6633 100.301 22.6633C82.2147 22.6633 67.2351 36.2172 64.9847 53.7008C63.1435 49.1381 59.982 45.2291 55.9051 42.4746C51.8282 39.7201 47.0217 38.2457 42.1015 38.2403C41.8078 38.2403 41.5261 38.357 41.3185 38.5647C41.1108 38.7723 40.9941 39.054 40.9941 39.3477C41.0018 45.7195 43.472 51.8418 47.8884 56.4348C52.3048 61.0277 58.3255 63.7359 64.6922 63.9933V76.1866C62.9141 76.235 61.141 76.3967 59.3835 76.6707C57.2382 72.4503 53.5347 69.2303 49.0569 67.6926C44.5792 66.1548 39.6789 66.4198 35.3932 68.4317C31.1075 70.4435 27.7729 74.0441 26.0953 78.4713C24.4177 82.8986 24.5288 87.8049 26.4052 92.1516C28.2815 96.4983 31.7757 99.9443 36.148 101.76C40.5204 103.576 45.4278 103.619 49.8313 101.88C54.2348 100.141 57.7887 96.7564 59.7408 92.4432C61.6928 88.1299 61.8898 83.2263 60.2899 78.7704C62.1085 78.5138 63.9428 78.3838 65.7795 78.3813C65.7863 78.3813 65.7927 78.3834 65.7996 78.3834C65.8065 78.3834 65.8128 78.3815 65.8196 78.3814C73.3926 78.3785 80.8072 80.5504 87.1819 84.6388C87.3042 84.7192 87.4413 84.7745 87.5851 84.8016C87.729 84.8286 87.8768 84.8269 88.02 84.7965C88.1632 84.7661 88.2989 84.7075 88.4194 84.6243C88.5398 84.5411 88.6426 84.4348 88.7217 84.3117C88.8008 84.1885 88.8547 84.0509 88.8803 83.9067C88.9058 83.7626 88.9026 83.6148 88.8707 83.4719C88.8388 83.3291 88.7789 83.1939 88.6944 83.0744C88.61 82.9548 88.5027 82.8532 88.3787 82.7753C81.9581 78.658 74.5319 76.3793 66.907 76.1866V59.3605C86.0311 58.7731 101.408 43.0347 101.408 23.7708ZM99.1746 24.8969C98.6104 41.8603 85.3337 55.6586 68.5884 57.0489L83.8332 41.8043C83.9384 41.7021 84.0223 41.5799 84.0799 41.4449C84.1376 41.3099 84.1678 41.1648 84.1689 41.018C84.1699 40.8713 84.1418 40.7258 84.0861 40.59C84.0304 40.4542 83.9483 40.3308 83.8445 40.227C83.7407 40.1232 83.6174 40.0411 83.4816 39.9854C83.3458 39.9297 83.2003 39.9016 83.0535 39.9027C82.9067 39.9037 82.7616 39.9339 82.6266 39.9916C82.4917 40.0492 82.3695 40.1331 82.2672 40.2384L67.0227 55.4826C68.4132 38.7376 82.2113 25.4611 99.1746 24.8969ZM43.2373 40.4835C48.7897 40.7717 54.0384 43.1069 57.9699 47.0383C61.9013 50.9697 64.2367 56.2184 64.5249 61.7708C58.9725 61.4827 53.7238 59.1474 49.7923 55.216C45.8608 51.2846 43.5255 46.0359 43.2373 40.4835ZM42.977 101.122C39.7789 101.122 36.6525 100.173 33.9933 98.3967C31.3341 96.6199 29.2615 94.0945 28.0376 91.1398C26.8137 88.185 26.4935 84.9337 27.1174 81.797C27.7413 78.6603 29.2814 75.779 31.5428 73.5176C33.8042 71.2561 36.6855 69.7161 39.8222 69.0921C42.9589 68.4682 46.2102 68.7884 49.1649 70.0123C52.1197 71.2361 54.6451 73.3087 56.4219 75.9679C58.1987 78.627 59.1471 81.7534 59.1471 84.9516C59.1423 89.2386 57.4371 93.3488 54.4056 96.3802C51.3742 99.4117 47.2641 101.117 42.977 101.122Z"/><path d="M50.9552 85.1346H44.0845V77.077C44.0845 76.7833 43.9678 76.5016 43.7601 76.2939C43.5524 76.0862 43.2708 75.9695 42.9771 75.9695C42.6833 75.9695 42.4017 76.0862 42.194 76.2939C41.9863 76.5016 41.8696 76.7833 41.8696 77.077V86.242C41.8696 86.5357 41.9863 86.8174 42.194 87.0251C42.4017 87.2328 42.6833 87.3494 42.9771 87.3494H50.9552C51.2489 87.3494 51.5305 87.2328 51.7382 87.0251C51.9459 86.8174 52.0626 86.5357 52.0626 86.242C52.0626 85.9483 51.9459 85.6666 51.7382 85.4589C51.5305 85.2513 51.2489 85.1346 50.9552 85.1346Z"/></symbol><symbol id="z-plant" viewBox="0 0 126 126"><path d="M83.8519 30.0803C85.6707 30.0697 87.4543 29.5727 89.0217 28.6399C90.2051 27.9627 91.2386 27.0473 92.0582 25.9504C92.8779 24.8535 93.4663 23.5983 93.7871 22.2624C93.853 21.9675 93.8059 21.6584 93.6554 21.3973C93.5048 21.1361 93.2621 20.9423 92.9759 20.8548C91.668 20.4783 90.2977 20.377 88.9496 20.5572C87.6014 20.7373 86.3042 21.195 85.138 21.902C84.1122 22.5047 83.1947 23.2786 82.4245 24.1909C82.1993 23.0133 81.7785 21.8828 81.1799 20.8472C80.5101 19.6508 79.6047 18.606 78.5196 17.7774C77.4346 16.9487 76.193 16.3538 74.8715 16.0294C74.5799 15.9629 74.2741 16.0105 74.0158 16.1627C73.7575 16.3149 73.5657 16.5603 73.4792 16.8496C73.1069 18.1719 73.0068 19.5572 73.185 20.9201C73.3632 22.283 73.8159 23.5944 74.5153 24.7734C75.6711 26.8157 77.4885 28.3922 79.6607 29.237C79.2765 31.3431 78.6827 35.0486 78.1898 40.0763C77.7646 39.2932 77.2617 38.5559 76.6888 37.8757C74.4447 35.2122 71.3042 33.6018 68.0728 33.4575C67.7741 33.4443 67.4816 33.5459 67.254 33.7419C67.0265 33.9378 66.8807 34.2136 66.846 34.5138C66.4729 37.7622 67.5459 41.1527 69.7901 43.8162C71.7604 46.2028 74.5455 47.7543 77.5937 48.1635C77.4532 50.9409 77.362 54.0111 77.357 57.327C76.9057 56.6618 76.3949 56.0398 75.8311 55.469C73.384 52.995 70.1282 51.6457 66.8938 51.7599C66.595 51.7707 66.3113 51.8955 66.0999 52.1093C65.8885 52.323 65.765 52.6098 65.7543 52.9119C65.6387 56.1798 66.976 59.4731 69.4233 61.9471C71.5713 64.1629 74.4626 65.4845 77.5269 65.6512C77.625 67.9692 77.7722 70.3649 77.9684 72.8383H48.0319C48.2319 70.3678 48.379 67.9721 48.4734 65.6512C51.5377 65.4843 54.429 64.1628 56.5771 61.9471C59.0243 59.4731 60.3616 56.1798 60.246 52.9119C60.2353 52.6098 60.1119 52.323 59.9004 52.1093C59.689 51.8955 59.4053 51.7707 59.1065 51.7599C55.8742 51.6453 52.6164 52.9952 50.1692 55.469C49.6054 56.0398 49.0946 56.6618 48.6433 57.327C48.6383 54.0111 48.5471 50.9409 48.4066 48.1635C51.4548 47.7543 54.2399 46.2028 56.2103 43.8162C58.4544 41.1528 59.5274 37.7622 59.1543 34.5139C59.12 34.2136 58.9743 33.9376 58.7467 33.7416C58.519 33.5456 58.2263 33.4441 57.9276 33.4576C54.6962 33.6019 51.5556 35.2122 49.3115 37.8758C48.7386 38.556 48.2357 39.2933 47.8106 40.0764C47.3177 35.0487 46.7238 31.3432 46.3397 29.2371C48.5119 28.3923 50.3293 26.8158 51.4851 24.7735C52.1845 23.5945 52.6372 22.283 52.8154 20.9201C52.9936 19.5572 52.8934 18.1719 52.5211 16.8496C52.4346 16.5603 52.2429 16.3148 51.9845 16.1626C51.7262 16.0104 51.4204 15.9628 51.1287 16.0294C49.8073 16.3537 48.5656 16.9486 47.4806 17.7773C46.3956 18.6059 45.4901 19.6508 44.8203 20.8472C44.2218 21.8827 43.801 23.0133 43.5758 24.1909C42.8055 23.2785 41.8881 22.5046 40.8623 21.902C39.696 21.195 38.3988 20.7373 37.0507 20.5571C35.7026 20.377 34.3322 20.4783 33.0244 20.8547C32.7382 20.9422 32.4954 21.136 32.3449 21.3972C32.1944 21.6583 32.1473 21.9674 32.2131 22.2623C32.5339 23.5982 33.1224 24.8534 33.942 25.9504C34.7616 27.0473 35.7951 27.9627 36.9785 28.6399C38.5458 29.5728 40.3294 30.0697 42.1482 30.0803C42.787 30.0798 43.424 30.0129 44.0493 29.8808C44.4177 31.9353 44.9687 35.4179 45.4292 40.0268C44.9323 39.4099 44.3812 38.8398 43.7826 38.3233C41.1479 36.0547 37.795 34.9701 34.5809 35.347C34.2839 35.3819 34.011 35.5292 33.8171 35.7593C33.6232 35.9894 33.5228 36.2852 33.536 36.5872C33.6789 39.8542 35.2719 43.0289 37.9065 45.2976C40.1118 47.2318 42.9242 48.3125 45.8435 48.3475C45.9116 48.3475 45.9796 48.3428 46.0477 48.3416C46.1873 51.1197 46.2769 54.1953 46.2786 57.5193C45.7961 56.7814 45.2413 56.0945 44.6226 55.469C42.1756 52.9951 38.9193 51.6457 35.6852 51.76C35.3864 51.7708 35.1027 51.8956 34.8913 52.1093C34.6799 52.3231 34.5564 52.6098 34.5457 52.9119C34.4301 56.1797 35.7674 59.473 38.2147 61.9472C40.3126 64.109 43.1188 65.4226 46.1066 65.6415C46.0072 67.9615 45.8578 70.3604 45.6583 72.8383H38.9611C38.6637 72.8383 38.3772 72.9516 38.1588 73.1556C37.9403 73.3596 37.8059 73.6394 37.7824 73.9391L37.203 81.3061C36.508 89.9801 39.1313 98.5931 44.532 105.37L47.8564 109.553C47.9672 109.693 48.1075 109.805 48.2671 109.883C48.4266 109.96 48.6013 110 48.7782 110H77.222C77.399 110 77.5736 109.96 77.7332 109.883C77.8927 109.805 78.0331 109.693 78.1439 109.553L81.4682 105.37C86.869 98.593 89.4923 89.98 88.7973 81.306L88.2179 73.9392C88.1943 73.6395 88.0599 73.3598 87.8415 73.1558C87.623 72.9518 87.3366 72.8385 87.0392 72.8385H80.3417C80.1391 70.3699 79.9895 67.971 79.8928 65.6417C82.8809 65.4229 85.6873 64.1093 87.7855 61.9474C90.2328 59.4732 91.5701 56.1799 91.4545 52.9121C91.4438 52.61 91.3203 52.3232 91.1089 52.1095C90.8975 51.8958 90.6138 51.7709 90.315 51.7601C87.0828 51.6455 83.8249 52.9954 81.3777 55.4692C80.7592 56.0943 80.2046 56.7808 79.7222 57.5184C79.7253 54.242 79.8151 51.1726 79.9597 48.3419C80.0254 48.3431 80.0909 48.3476 80.1566 48.3476C83.0759 48.3126 85.8883 47.2319 88.0935 45.2978C90.7281 43.029 92.3211 39.8543 92.4641 36.5873C92.4773 36.2853 92.3769 35.9895 92.183 35.7594C91.9891 35.5293 91.7162 35.382 91.4192 35.3472C88.2061 34.9697 84.8522 36.0549 82.2175 38.3235C81.6243 38.8353 81.0778 39.3999 80.5844 40.0105C81.0446 35.3993 81.5892 31.9291 81.9534 29.8815C82.5779 30.0132 83.214 30.0798 83.8519 30.0803ZM51.8415 57.1597C53.4456 55.5022 55.565 54.4531 57.8438 54.1886C57.5577 56.4851 56.5237 58.6199 54.9047 60.2566C53.2858 61.8933 51.174 62.9386 48.9024 63.2277C49.1643 60.924 50.2021 58.7815 51.8415 57.1597ZM51.1118 39.4261C52.5802 37.6446 54.61 36.4279 56.8606 35.9801C56.7567 38.2924 55.8944 40.5039 54.4098 42.2659C52.9252 44.028 50.9027 45.2403 48.6612 45.7119C48.7403 43.3944 49.6056 41.175 51.1118 39.4261ZM46.8637 22.051C47.6926 20.5803 48.9677 19.4185 50.5004 18.7374C50.6534 20.4204 50.2833 22.1096 49.4416 23.5698C48.5999 25.03 47.3286 26.1883 45.8048 26.8834C45.6353 25.1994 46.0066 23.505 46.8637 22.051ZM38.1693 26.5742C36.7146 25.7361 35.5654 24.447 34.8918 22.8974C36.5564 22.7427 38.2274 23.1169 39.6717 23.9678C41.1161 24.8188 42.2618 26.104 42.9493 27.6445C41.2836 27.8161 39.6075 27.4409 38.1693 26.5742ZM39.4401 43.4776C37.6779 41.9932 36.4743 39.9411 36.0315 37.6659C38.3187 37.7709 40.5062 38.6425 42.2492 40.1434C43.9921 41.6443 45.1914 43.689 45.6578 45.9551C43.3654 45.8751 41.17 45.0003 39.4401 43.4776ZM39.8871 60.2566C38.2477 58.6348 37.21 56.4923 36.948 54.1886C39.2196 54.4777 41.3314 55.5231 42.9503 57.1597C44.5693 58.7964 45.6033 60.9313 45.8893 63.2277C43.6106 62.9631 41.4913 61.914 39.8871 60.2566ZM79.6246 103.872L76.6553 107.609H49.3451L46.3758 103.872C41.5901 97.8672 39.1427 90.2997 39.4948 82.5963H86.5055C86.8577 90.2996 84.4103 97.8672 79.6246 103.872ZM86.3385 80.2055H39.6619L40.0532 75.2292H46.7429H46.7457H46.7471H79.2533H79.2546H79.2575H85.947L86.3385 80.2055ZM83.7512 40.1434C85.4811 38.6206 87.6765 37.7458 89.9689 37.6659C89.5025 39.932 88.3033 41.9766 86.5603 43.4775C84.8174 44.9784 82.6298 45.85 80.3426 45.955C80.7855 43.6798 81.989 41.6278 83.7512 40.1434ZM86.3287 23.9678C87.767 23.1014 89.443 22.7261 91.1086 22.8976C90.4212 24.4381 89.2754 25.7233 87.831 26.5742C86.3867 27.4251 84.7157 27.7992 83.051 27.6444C83.7248 26.0949 84.874 24.8058 86.3287 23.9678ZM76.5586 23.5699C75.7016 22.1158 75.3304 20.4214 75.4999 18.7374C77.0237 19.4324 78.295 20.5908 79.1367 22.051C79.9784 23.5111 80.3485 25.2004 80.1955 26.8834C78.6627 26.2023 77.3875 25.0405 76.5586 23.5699ZM71.5905 42.2659C70.0843 40.517 69.2189 38.2976 69.1397 35.9801C71.3813 36.4515 73.4038 37.6639 74.8884 39.426C76.373 41.1881 77.2352 43.3996 77.339 45.7119C75.0885 45.2641 73.0588 44.0474 71.5905 42.2659ZM71.0956 60.2565C69.4562 58.6347 68.4185 56.4923 68.1565 54.1886C70.4281 54.4777 72.5399 55.5231 74.1588 57.1597C75.7778 58.7964 76.8118 60.9313 77.0979 63.2277C74.8191 62.9631 72.6998 61.9139 71.0956 60.2565ZM83.05 57.1596C84.6542 55.5022 86.7735 54.4531 89.0522 54.1886C88.7662 56.4851 87.7322 58.6199 86.1132 60.2566C84.4943 61.8933 82.3825 62.9386 80.1109 63.2277C80.3728 60.924 81.4106 58.7814 83.05 57.1596Z"/></symbol></svg>
