<svg xmlns="http://www.w3.org/2000/svg">
<symbol id="arrow-right" viewBox="0 0 24 24"><path d="M14 16L18 12M18 12L14 8M18 12L6 12" stroke-width="1.5" stroke-linecap="round" stroke-linejoin="round"/></symbol><symbol id="calendar" viewBox="0 0 24 24"><path d="M3 7.5C3 5.29086 4.79086 3.5 7 3.5H17C19.2091 3.5 21 5.29086 21 7.5V18C21 20.2091 19.2091 22 17 22H7C4.79086 22 3 20.2091 3 18V7.5Z" stroke-width="1.5"/><path d="M3 9H21" stroke-width="1.5" stroke-linecap="round"/><path d="M8 2L8 5" stroke-width="1.5" stroke-linecap="round" stroke-linejoin="round"/><path d="M16 2V5" stroke-width="1.5" stroke-linecap="round" stroke-linejoin="round"/><circle cx="12" cy="15" r="1" fill="currentColor"/><circle cx="16" cy="15" r="1" fill="currentColor"/><circle cx="8" cy="15" r="1" fill="currentColor"/></symbol><symbol id="facebook" viewBox="0 0 24 24"><path d="M18 3H15C12.2386 3 10 5.23858 10 8V10H6V14H10V21H14V14H18V10H14V8C14 7.44772 14.4477 7 15 7H18V3Z" stroke-width="1.5" stroke-linecap="round" stroke-linejoin="round"/></symbol><symbol id="heart" viewBox="0 0 24 24"><path d="M12.765 4.70229L12 5.52422L11.235 4.70229C9.12233 2.43257 5.69709 2.43257 3.58447 4.70229C1.47184 6.972 1.47184 10.6519 3.58447 12.9217L10.4699 20.3191C11.315 21.227 12.685 21.227 13.5301 20.3191L20.4155 12.9217C22.5282 10.6519 22.5282 6.972 20.4155 4.70229C18.3029 2.43257 14.8777 2.43257 12.765 4.70229Z" stroke-width="1.5" stroke-linejoin="round"/></symbol><symbol id="instagram" viewBox="0 0 24 24"><rect x="2" y="2" width="20" height="20" rx="4" stroke-width="1.5"/><circle cx="18" cy="6" r="1" fill="currentColor"/><circle cx="12" cy="12" r="5" stroke-width="1.5"/></symbol><symbol id="menu-line" viewBox="0 0 24 24"><path d="M7 8H17M7 12H17M7 16H17" stroke-width="1.5" stroke-linecap="round"/></symbol><symbol id="twitter" viewBox="0 0 24 24"><path d="M15.286 4C13.1821 4 11.4766 5.79086 11.4766 8C11.4766 8.33382 11.5156 8.65809 11.5889 8.96808C9.3 8.96808 5.7 8.44444 3 4.88889C3 13.7778 6.6 16.2963 8.4 16.4444C7.05 17.7778 4.9465 18.7647 3 18.9503C3.83744 19.7106 6.46043 19.9669 7.66725 20C13.9081 20 18.9805 14.7471 19.0934 8.22229C20.2903 7.44391 20.8588 5.33377 21 4.88889C20.4169 5.50119 19.2 5.77778 18.2303 5.46181C17.5317 4.56927 16.4721 4 15.286 4Z" stroke-width="1.5" stroke-linejoin="round"/></symbol></svg>